<svg width="633" height="546" viewBox="0 0 633 546" fill="none" xmlns="http://www.w3.org/2000/svg">
<path d="M224.384 271V251.4H227.884L234.52 264.448L241.128 251.4H244.628V271H241.66V256.524L235.668 268.2H233.372L227.352 256.552V271H224.384ZM253.622 271.336C251.942 271.336 250.617 270.813 249.646 269.768C248.694 268.723 248.218 267.164 248.218 265.092V257.112H251.186V264.784C251.186 267.472 252.288 268.816 254.49 268.816C255.592 268.816 256.497 268.424 257.206 267.64C257.916 266.856 258.27 265.736 258.27 264.28V257.112H261.238V271H258.606L258.382 268.564C257.953 269.423 257.318 270.104 256.478 270.608C255.657 271.093 254.705 271.336 253.622 271.336ZM265.014 271V250.84H267.982V271H265.014ZM277.564 271C276.202 271 275.119 270.673 274.316 270.02C273.514 269.348 273.112 268.163 273.112 266.464V259.604H270.732V257.112H273.112L273.476 253.584H276.08V257.112H280V259.604H276.08V266.464C276.08 267.229 276.239 267.761 276.556 268.06C276.892 268.34 277.462 268.48 278.264 268.48H279.86V271H277.564ZM284.741 254.48C284.181 254.48 283.714 254.312 283.341 253.976C282.986 253.621 282.809 253.183 282.809 252.66C282.809 252.137 282.986 251.708 283.341 251.372C283.714 251.017 284.181 250.84 284.741 250.84C285.301 250.84 285.758 251.017 286.113 251.372C286.486 251.708 286.673 252.137 286.673 252.66C286.673 253.183 286.486 253.621 286.113 253.976C285.758 254.312 285.301 254.48 284.741 254.48ZM283.257 271V257.112H286.225V271H283.257ZM289.863 264.112V261.62H301.259V264.112H289.863ZM304.69 271V250.84H307.658V271H304.69ZM316.12 271.336C314.944 271.336 313.974 271.14 313.208 270.748C312.443 270.356 311.874 269.843 311.5 269.208C311.127 268.555 310.94 267.845 310.94 267.08C310.94 265.736 311.463 264.672 312.508 263.888C313.554 263.104 315.047 262.712 316.988 262.712H320.628V262.46C320.628 261.377 320.33 260.565 319.732 260.024C319.154 259.483 318.398 259.212 317.464 259.212C316.643 259.212 315.924 259.417 315.308 259.828C314.711 260.22 314.347 260.808 314.216 261.592H311.248C311.342 260.584 311.678 259.725 312.256 259.016C312.854 258.288 313.6 257.737 314.496 257.364C315.411 256.972 316.41 256.776 317.492 256.776C319.434 256.776 320.936 257.289 322 258.316C323.064 259.324 323.596 260.705 323.596 262.46V271H321.02L320.768 268.62C320.376 269.385 319.807 270.029 319.06 270.552C318.314 271.075 317.334 271.336 316.12 271.336ZM316.708 268.928C317.511 268.928 318.183 268.741 318.724 268.368C319.284 267.976 319.714 267.463 320.012 266.828C320.33 266.193 320.526 265.493 320.6 264.728H317.296C316.12 264.728 315.28 264.933 314.776 265.344C314.291 265.755 314.048 266.268 314.048 266.884C314.048 267.519 314.282 268.023 314.748 268.396C315.234 268.751 315.887 268.928 316.708 268.928ZM327.057 271V257.112H329.689L329.913 259.548C330.342 258.689 330.968 258.017 331.789 257.532C332.629 257.028 333.59 256.776 334.673 256.776C336.353 256.776 337.669 257.299 338.621 258.344C339.592 259.389 340.077 260.948 340.077 263.02V271H337.137V263.328C337.137 260.64 336.036 259.296 333.833 259.296C332.732 259.296 331.817 259.688 331.089 260.472C330.38 261.256 330.025 262.376 330.025 263.832V271H327.057ZM349.256 266.744C348.528 266.744 347.856 266.66 347.24 266.492L346.036 267.668C346.242 267.799 346.494 267.911 346.792 268.004C347.091 268.097 347.511 268.181 348.052 268.256C348.594 268.331 349.331 268.405 350.264 268.48C352.112 268.648 353.447 269.096 354.268 269.824C355.09 270.533 355.5 271.485 355.5 272.68C355.5 273.501 355.276 274.276 354.828 275.004C354.399 275.751 353.718 276.348 352.784 276.796C351.87 277.263 350.694 277.496 349.256 277.496C347.315 277.496 345.738 277.123 344.524 276.376C343.33 275.648 342.732 274.537 342.732 273.044C342.732 272.465 342.882 271.887 343.18 271.308C343.498 270.748 343.992 270.216 344.664 269.712C344.272 269.544 343.927 269.367 343.628 269.18C343.348 268.975 343.096 268.769 342.872 268.564V267.892L345.28 265.428C344.198 264.495 343.656 263.272 343.656 261.76C343.656 260.845 343.871 260.015 344.3 259.268C344.748 258.503 345.392 257.896 346.232 257.448C347.072 257 348.08 256.776 349.256 256.776C350.04 256.776 350.768 256.888 351.44 257.112H356.62V259.072L354.156 259.212C354.604 259.977 354.828 260.827 354.828 261.76C354.828 262.693 354.604 263.533 354.156 264.28C353.727 265.027 353.092 265.624 352.252 266.072C351.431 266.52 350.432 266.744 349.256 266.744ZM349.256 264.42C350.115 264.42 350.806 264.196 351.328 263.748C351.87 263.281 352.14 262.628 352.14 261.788C352.14 260.929 351.87 260.276 351.328 259.828C350.806 259.38 350.115 259.156 349.256 259.156C348.379 259.156 347.67 259.38 347.128 259.828C346.606 260.276 346.344 260.929 346.344 261.788C346.344 262.628 346.606 263.281 347.128 263.748C347.67 264.196 348.379 264.42 349.256 264.42ZM345.532 272.764C345.532 273.567 345.887 274.164 346.596 274.556C347.306 274.967 348.192 275.172 349.256 275.172C350.283 275.172 351.114 274.948 351.748 274.5C352.383 274.071 352.7 273.492 352.7 272.764C352.7 272.223 352.486 271.756 352.056 271.364C351.627 270.991 350.815 270.757 349.62 270.664C348.724 270.608 347.931 270.524 347.24 270.412C346.587 270.767 346.139 271.149 345.896 271.56C345.654 271.971 345.532 272.372 345.532 272.764ZM364.392 271.336C362.712 271.336 361.386 270.813 360.416 269.768C359.464 268.723 358.988 267.164 358.988 265.092V257.112H361.956V264.784C361.956 267.472 363.057 268.816 365.26 268.816C366.361 268.816 367.266 268.424 367.976 267.64C368.685 266.856 369.04 265.736 369.04 264.28V257.112H372.008V271H369.376L369.152 268.564C368.722 269.423 368.088 270.104 367.248 270.608C366.426 271.093 365.474 271.336 364.392 271.336ZM380.487 271.336C379.311 271.336 378.341 271.14 377.575 270.748C376.81 270.356 376.241 269.843 375.867 269.208C375.494 268.555 375.307 267.845 375.307 267.08C375.307 265.736 375.83 264.672 376.875 263.888C377.921 263.104 379.414 262.712 381.355 262.712H384.995V262.46C384.995 261.377 384.697 260.565 384.099 260.024C383.521 259.483 382.765 259.212 381.831 259.212C381.01 259.212 380.291 259.417 379.675 259.828C379.078 260.22 378.714 260.808 378.583 261.592H375.615C375.709 260.584 376.045 259.725 376.623 259.016C377.221 258.288 377.967 257.737 378.863 257.364C379.778 256.972 380.777 256.776 381.859 256.776C383.801 256.776 385.303 257.289 386.367 258.316C387.431 259.324 387.963 260.705 387.963 262.46V271H385.387L385.135 268.62C384.743 269.385 384.174 270.029 383.427 270.552C382.681 271.075 381.701 271.336 380.487 271.336ZM381.075 268.928C381.878 268.928 382.55 268.741 383.091 268.368C383.651 267.976 384.081 267.463 384.379 266.828C384.697 266.193 384.893 265.493 384.967 264.728H381.663C380.487 264.728 379.647 264.933 379.143 265.344C378.658 265.755 378.415 266.268 378.415 266.884C378.415 267.519 378.649 268.023 379.115 268.396C379.601 268.751 380.254 268.928 381.075 268.928ZM397.108 266.744C396.38 266.744 395.708 266.66 395.092 266.492L393.888 267.668C394.093 267.799 394.345 267.911 394.644 268.004C394.943 268.097 395.363 268.181 395.904 268.256C396.445 268.331 397.183 268.405 398.116 268.48C399.964 268.648 401.299 269.096 402.12 269.824C402.941 270.533 403.352 271.485 403.352 272.68C403.352 273.501 403.128 274.276 402.68 275.004C402.251 275.751 401.569 276.348 400.636 276.796C399.721 277.263 398.545 277.496 397.108 277.496C395.167 277.496 393.589 277.123 392.376 276.376C391.181 275.648 390.584 274.537 390.584 273.044C390.584 272.465 390.733 271.887 391.032 271.308C391.349 270.748 391.844 270.216 392.516 269.712C392.124 269.544 391.779 269.367 391.48 269.18C391.2 268.975 390.948 268.769 390.724 268.564V267.892L393.132 265.428C392.049 264.495 391.508 263.272 391.508 261.76C391.508 260.845 391.723 260.015 392.152 259.268C392.6 258.503 393.244 257.896 394.084 257.448C394.924 257 395.932 256.776 397.108 256.776C397.892 256.776 398.62 256.888 399.292 257.112H404.472V259.072L402.008 259.212C402.456 259.977 402.68 260.827 402.68 261.76C402.68 262.693 402.456 263.533 402.008 264.28C401.579 265.027 400.944 265.624 400.104 266.072C399.283 266.52 398.284 266.744 397.108 266.744ZM397.108 264.42C397.967 264.42 398.657 264.196 399.18 263.748C399.721 263.281 399.992 262.628 399.992 261.788C399.992 260.929 399.721 260.276 399.18 259.828C398.657 259.38 397.967 259.156 397.108 259.156C396.231 259.156 395.521 259.38 394.98 259.828C394.457 260.276 394.196 260.929 394.196 261.788C394.196 262.628 394.457 263.281 394.98 263.748C395.521 264.196 396.231 264.42 397.108 264.42ZM393.384 272.764C393.384 273.567 393.739 274.164 394.448 274.556C395.157 274.967 396.044 275.172 397.108 275.172C398.135 275.172 398.965 274.948 399.6 274.5C400.235 274.071 400.552 273.492 400.552 272.764C400.552 272.223 400.337 271.756 399.908 271.364C399.479 270.991 398.667 270.757 397.472 270.664C396.576 270.608 395.783 270.524 395.092 270.412C394.439 270.767 393.991 271.149 393.748 271.56C393.505 271.971 393.384 272.372 393.384 272.764ZM413.068 271.336C411.706 271.336 410.492 271.037 409.428 270.44C408.383 269.824 407.562 268.975 406.964 267.892C406.367 266.809 406.068 265.549 406.068 264.112C406.068 262.656 406.358 261.377 406.936 260.276C407.534 259.175 408.355 258.316 409.4 257.7C410.464 257.084 411.696 256.776 413.096 256.776C414.459 256.776 415.644 257.084 416.652 257.7C417.66 258.297 418.444 259.1 419.004 260.108C419.564 261.116 419.844 262.227 419.844 263.44C419.844 263.627 419.835 263.832 419.816 264.056C419.816 264.261 419.807 264.495 419.788 264.756H408.98C409.074 266.1 409.512 267.127 410.296 267.836C411.099 268.527 412.023 268.872 413.068 268.872C413.908 268.872 414.608 268.685 415.168 268.312C415.747 267.92 416.176 267.397 416.456 266.744H419.424C419.051 268.051 418.304 269.143 417.184 270.02C416.083 270.897 414.711 271.336 413.068 271.336ZM413.068 259.212C412.079 259.212 411.202 259.511 410.436 260.108C409.671 260.687 409.204 261.564 409.036 262.74H416.876C416.82 261.657 416.438 260.799 415.728 260.164C415.019 259.529 414.132 259.212 413.068 259.212ZM273.415 299.336C271.661 299.336 270.214 298.907 269.075 298.048C267.937 297.189 267.283 296.051 267.115 294.632H270.111C270.261 295.267 270.615 295.817 271.175 296.284C271.735 296.732 272.473 296.956 273.387 296.956C274.283 296.956 274.937 296.769 275.347 296.396C275.758 296.023 275.963 295.593 275.963 295.108C275.963 294.399 275.674 293.923 275.095 293.68C274.535 293.419 273.751 293.185 272.743 292.98C271.959 292.812 271.175 292.588 270.391 292.308C269.626 292.028 268.982 291.636 268.459 291.132C267.955 290.609 267.703 289.909 267.703 289.032C267.703 287.819 268.17 286.811 269.103 286.008C270.037 285.187 271.343 284.776 273.023 284.776C274.573 284.776 275.823 285.149 276.775 285.896C277.746 286.643 278.315 287.697 278.483 289.06H275.627C275.534 288.463 275.254 287.996 274.787 287.66C274.339 287.324 273.733 287.156 272.967 287.156C272.221 287.156 271.642 287.315 271.231 287.632C270.821 287.931 270.615 288.323 270.615 288.808C270.615 289.293 270.895 289.676 271.455 289.956C272.034 290.236 272.79 290.488 273.723 290.712C274.657 290.917 275.515 291.16 276.299 291.44C277.102 291.701 277.746 292.093 278.231 292.616C278.717 293.139 278.959 293.904 278.959 294.912C278.978 296.181 278.483 297.236 277.475 298.076C276.486 298.916 275.133 299.336 273.415 299.336ZM287.323 299.336C285.643 299.336 284.318 298.813 283.347 297.768C282.395 296.723 281.919 295.164 281.919 293.092V285.112H284.887V292.784C284.887 295.472 285.989 296.816 288.191 296.816C289.293 296.816 290.198 296.424 290.907 295.64C291.617 294.856 291.971 293.736 291.971 292.28V285.112H294.939V299H292.307L292.083 296.564C291.654 297.423 291.019 298.104 290.179 298.608C289.358 299.093 288.406 299.336 287.323 299.336ZM298.715 305.16V285.112H301.375L301.683 287.268C302.131 286.615 302.747 286.036 303.531 285.532C304.315 285.028 305.323 284.776 306.555 284.776C307.899 284.776 309.084 285.093 310.111 285.728C311.138 286.363 311.94 287.231 312.519 288.332C313.116 289.433 313.415 290.684 313.415 292.084C313.415 293.484 313.116 294.735 312.519 295.836C311.94 296.919 311.138 297.777 310.111 298.412C309.084 299.028 307.89 299.336 306.527 299.336C305.444 299.336 304.483 299.121 303.643 298.692C302.822 298.263 302.168 297.656 301.683 296.872V305.16H298.715ZM306.023 296.76C307.292 296.76 308.338 296.331 309.159 295.472C309.98 294.595 310.391 293.456 310.391 292.056C310.391 291.141 310.204 290.329 309.831 289.62C309.458 288.911 308.944 288.36 308.291 287.968C307.638 287.557 306.882 287.352 306.023 287.352C304.754 287.352 303.708 287.791 302.887 288.668C302.084 289.545 301.683 290.675 301.683 292.056C301.683 293.456 302.084 294.595 302.887 295.472C303.708 296.331 304.754 296.76 306.023 296.76ZM316.625 305.16V285.112H319.285L319.593 287.268C320.041 286.615 320.657 286.036 321.441 285.532C322.225 285.028 323.233 284.776 324.465 284.776C325.809 284.776 326.995 285.093 328.021 285.728C329.048 286.363 329.851 287.231 330.429 288.332C331.027 289.433 331.325 290.684 331.325 292.084C331.325 293.484 331.027 294.735 330.429 295.836C329.851 296.919 329.048 297.777 328.021 298.412C326.995 299.028 325.8 299.336 324.437 299.336C323.355 299.336 322.393 299.121 321.553 298.692C320.732 298.263 320.079 297.656 319.593 296.872V305.16H316.625ZM323.933 296.76C325.203 296.76 326.248 296.331 327.069 295.472C327.891 294.595 328.301 293.456 328.301 292.056C328.301 291.141 328.115 290.329 327.741 289.62C327.368 288.911 326.855 288.36 326.201 287.968C325.548 287.557 324.792 287.352 323.933 287.352C322.664 287.352 321.619 287.791 320.797 288.668C319.995 289.545 319.593 290.675 319.593 292.056C319.593 293.456 319.995 294.595 320.797 295.472C321.619 296.331 322.664 296.76 323.933 296.76ZM341.031 299.336C339.706 299.336 338.511 299.037 337.447 298.44C336.402 297.824 335.571 296.975 334.955 295.892C334.339 294.791 334.031 293.512 334.031 292.056C334.031 290.6 334.339 289.331 334.955 288.248C335.59 287.147 336.439 286.297 337.503 285.7C338.567 285.084 339.753 284.776 341.059 284.776C342.385 284.776 343.57 285.084 344.615 285.7C345.679 286.297 346.519 287.147 347.135 288.248C347.77 289.331 348.087 290.6 348.087 292.056C348.087 293.512 347.77 294.791 347.135 295.892C346.519 296.975 345.679 297.824 344.615 298.44C343.551 299.037 342.357 299.336 341.031 299.336ZM341.031 296.788C341.741 296.788 342.394 296.611 342.991 296.256C343.607 295.901 344.102 295.379 344.475 294.688C344.849 293.979 345.035 293.101 345.035 292.056C345.035 291.011 344.849 290.143 344.475 289.452C344.121 288.743 343.635 288.211 343.019 287.856C342.422 287.501 341.769 287.324 341.059 287.324C340.35 287.324 339.687 287.501 339.071 287.856C338.474 288.211 337.989 288.743 337.615 289.452C337.242 290.143 337.055 291.011 337.055 292.056C337.055 293.101 337.242 293.979 337.615 294.688C337.989 295.379 338.474 295.901 339.071 296.256C339.669 296.611 340.322 296.788 341.031 296.788ZM351.297 299V285.112H353.957L354.209 287.744C354.694 286.829 355.366 286.111 356.225 285.588C357.102 285.047 358.157 284.776 359.389 284.776V287.884H358.577C357.756 287.884 357.018 288.024 356.365 288.304C355.73 288.565 355.217 289.023 354.825 289.676C354.452 290.311 354.265 291.197 354.265 292.336V299H351.297ZM367.758 299C366.395 299 365.312 298.673 364.51 298.02C363.707 297.348 363.306 296.163 363.306 294.464V287.604H360.926V285.112H363.306L363.67 281.584H366.274V285.112H370.194V287.604H366.274V294.464C366.274 295.229 366.432 295.761 366.75 296.06C367.086 296.34 367.655 296.48 368.458 296.48H370.054V299H367.758ZM374.43 299.168C373.87 299.168 373.403 298.991 373.03 298.636C372.675 298.263 372.498 297.824 372.498 297.32C372.498 296.797 372.675 296.359 373.03 296.004C373.403 295.631 373.87 295.444 374.43 295.444C374.99 295.444 375.447 295.631 375.802 296.004C376.157 296.359 376.334 296.797 376.334 297.32C376.334 297.824 376.157 298.263 375.802 298.636C375.447 298.991 374.99 299.168 374.43 299.168Z" fill="#171517"/>
<circle cx="322.278" cy="278.278" r="166.254" stroke="#F1F3EC" stroke-width="3"/>
<circle cx="322.278" cy="278.278" r="265.778" stroke="#F1F3EC" stroke-width="3"/>
<rect x="122" y="21" width="110" height="56.5723" rx="11.2207" fill="#171517"/>
<path d="M156.485 57.0381C155.407 57.0381 154.469 56.8421 153.671 56.4501C152.873 56.0581 152.257 55.5121 151.823 54.8121C151.389 54.1121 151.172 53.3001 151.172 52.3761H153.02C153.02 52.9501 153.153 53.4821 153.419 53.9721C153.685 54.4481 154.07 54.8331 154.574 55.1271C155.092 55.4071 155.729 55.5471 156.485 55.5471C157.479 55.5471 158.249 55.3091 158.795 54.8331C159.341 54.3571 159.614 53.7621 159.614 53.0481C159.614 52.4601 159.488 51.9911 159.236 51.6411C158.984 51.2771 158.641 50.9831 158.207 50.7591C157.787 50.5351 157.297 50.3391 156.737 50.1711C156.191 50.0031 155.617 49.8141 155.015 49.6041C153.881 49.2121 153.041 48.7291 152.495 48.1551C151.949 47.5671 151.676 46.8041 151.676 45.8661C151.662 45.0821 151.844 44.3891 152.222 43.7871C152.6 43.1711 153.132 42.6951 153.818 42.3591C154.518 42.0091 155.344 41.8341 156.296 41.8341C157.234 41.8341 158.046 42.0091 158.732 42.3591C159.432 42.7091 159.971 43.1921 160.349 43.8081C160.741 44.4241 160.944 45.1241 160.958 45.9081H159.11C159.11 45.5021 159.005 45.1031 158.795 44.7111C158.585 44.3051 158.263 43.9761 157.829 43.7241C157.409 43.4721 156.877 43.3461 156.233 43.3461C155.435 43.3321 154.777 43.5351 154.259 43.9551C153.755 44.3751 153.503 44.9561 153.503 45.6981C153.503 46.3281 153.678 46.8111 154.028 47.1471C154.392 47.4831 154.896 47.7631 155.54 47.9871C156.184 48.1971 156.926 48.4421 157.766 48.7221C158.466 48.9741 159.096 49.2681 159.656 49.6041C160.216 49.9401 160.65 50.3741 160.958 50.9061C161.28 51.4381 161.441 52.1171 161.441 52.9431C161.441 53.6431 161.259 54.3081 160.895 54.9381C160.531 55.5541 159.978 56.0581 159.236 56.4501C158.508 56.8421 157.591 57.0381 156.485 57.0381ZM167.302 57.0381C166.434 57.0381 165.713 56.8911 165.139 56.5971C164.565 56.3031 164.138 55.9111 163.858 55.4211C163.578 54.9311 163.438 54.3991 163.438 53.8251C163.438 52.7611 163.844 51.9421 164.656 51.3681C165.468 50.7941 166.574 50.5071 167.974 50.5071H170.788V50.3811C170.788 49.4711 170.55 48.7851 170.074 48.3231C169.598 47.8471 168.961 47.6091 168.163 47.6091C167.477 47.6091 166.882 47.7841 166.378 48.1341C165.888 48.4701 165.58 48.9671 165.454 49.6251H163.648C163.718 48.8691 163.97 48.2321 164.404 47.7141C164.852 47.1961 165.405 46.8041 166.063 46.5381C166.721 46.2581 167.421 46.1181 168.163 46.1181C169.619 46.1181 170.711 46.5101 171.439 47.2941C172.181 48.0641 172.552 49.0931 172.552 50.3811V56.7861H170.977L170.872 54.9171C170.578 55.5051 170.144 56.0091 169.57 56.4291C169.01 56.8351 168.254 57.0381 167.302 57.0381ZM167.575 55.5471C168.247 55.5471 168.821 55.3721 169.297 55.0221C169.787 54.6721 170.158 54.2171 170.41 53.6571C170.662 53.0971 170.788 52.5091 170.788 51.8931V51.8721H168.121C167.085 51.8721 166.35 52.0541 165.916 52.4181C165.496 52.7681 165.286 53.2091 165.286 53.7411C165.286 54.2871 165.482 54.7281 165.874 55.0641C166.28 55.3861 166.847 55.5471 167.575 55.5471ZM175.199 56.7861V41.6661H176.963V56.7861H175.199ZM183.655 57.0381C182.423 57.0381 181.443 56.6671 180.715 55.9251C179.987 55.1691 179.623 54.0141 179.623 52.4601V46.3701H181.387V52.2711C181.387 54.4411 182.276 55.5261 184.054 55.5261C184.964 55.5261 185.713 55.2041 186.301 54.5601C186.903 53.9021 187.204 52.9711 187.204 51.7671V46.3701H188.968V56.7861H187.372L187.246 54.9171C186.924 55.5751 186.441 56.0931 185.797 56.4711C185.167 56.8491 184.453 57.0381 183.655 57.0381ZM195.987 56.7861C195.035 56.7861 194.286 56.5551 193.74 56.0931C193.194 55.6311 192.921 54.7981 192.921 53.5941V47.8611H191.115V46.3701H192.921L193.152 43.8711H194.685V46.3701H197.751V47.8611H194.685V53.5941C194.685 54.2521 194.818 54.7001 195.084 54.9381C195.35 55.1621 195.819 55.2741 196.491 55.2741H197.583V56.7861H195.987ZM200.37 52.7121L200.16 42.0861H202.071L201.861 52.7121H200.37ZM201.168 56.8911C200.818 56.8911 200.524 56.7791 200.286 56.5551C200.062 56.3171 199.95 56.0301 199.95 55.6941C199.95 55.3581 200.062 55.0781 200.286 54.8541C200.524 54.6161 200.818 54.4971 201.168 54.4971C201.504 54.4971 201.784 54.6161 202.008 54.8541C202.246 55.0781 202.365 55.3581 202.365 55.6941C202.365 56.0301 202.246 56.3171 202.008 56.5551C201.784 56.7791 201.504 56.8911 201.168 56.8911Z" fill="white"/>
<path d="M178.119 92.2394C177.558 92.9823 176.442 92.9823 175.881 92.2394L159.918 71.1074C159.22 70.1834 159.879 68.8594 161.037 68.8594H192.963C194.121 68.8594 194.78 70.1834 194.082 71.1074L178.119 92.2394Z" fill="#171517"/>
<rect x="402" width="110" height="56.5723" rx="11.2207" fill="#171517"/>
<path d="M431.976 35.7861V21.0861H433.74V27.5751H441.363V21.0861H443.127V35.7861H441.363V29.0241H433.74V35.7861H431.976ZM450.807 36.0381C449.813 36.0381 448.931 35.8141 448.161 35.3661C447.391 34.9041 446.782 34.2671 446.334 33.4551C445.9 32.6431 445.683 31.6841 445.683 30.5781C445.683 29.4861 445.9 28.5341 446.334 27.7221C446.768 26.8961 447.37 26.2591 448.14 25.8111C448.924 25.3491 449.827 25.1181 450.849 25.1181C451.857 25.1181 452.725 25.3491 453.453 25.8111C454.195 26.2591 454.762 26.8541 455.154 27.5961C455.546 28.3381 455.742 29.1361 455.742 29.9901C455.742 30.1441 455.735 30.2981 455.721 30.4521C455.721 30.6061 455.721 30.7811 455.721 30.9771H447.426C447.468 31.7751 447.65 32.4401 447.972 32.9721C448.308 33.4901 448.721 33.8821 449.211 34.1481C449.715 34.4141 450.247 34.5471 450.807 34.5471C451.535 34.5471 452.144 34.3791 452.634 34.0431C453.124 33.7071 453.481 33.2521 453.705 32.6781H455.448C455.168 33.6441 454.629 34.4491 453.831 35.0931C453.047 35.7231 452.039 36.0381 450.807 36.0381ZM450.807 26.6091C449.967 26.6091 449.218 26.8681 448.56 27.3861C447.916 27.8901 447.545 28.6321 447.447 29.6121H453.999C453.957 28.6741 453.635 27.9391 453.033 27.4071C452.431 26.8751 451.689 26.6091 450.807 26.6091ZM458.08 35.7861V20.6661H459.844V35.7861H458.08ZM462.735 35.7861V20.6661H464.499V35.7861H462.735ZM472.136 36.0381C471.156 36.0381 470.274 35.8141 469.49 35.3661C468.706 34.9181 468.083 34.2881 467.621 33.4761C467.173 32.6501 466.949 31.6841 466.949 30.5781C466.949 29.4721 467.18 28.5131 467.642 27.7011C468.104 26.8751 468.727 26.2381 469.511 25.7901C470.309 25.3421 471.198 25.1181 472.178 25.1181C473.158 25.1181 474.04 25.3421 474.824 25.7901C475.608 26.2381 476.224 26.8751 476.672 27.7011C477.134 28.5131 477.365 29.4721 477.365 30.5781C477.365 31.6841 477.134 32.6501 476.672 33.4761C476.21 34.2881 475.58 34.9181 474.782 35.3661C473.998 35.8141 473.116 36.0381 472.136 36.0381ZM472.136 34.5261C472.738 34.5261 473.298 34.3791 473.816 34.0851C474.334 33.7911 474.754 33.3501 475.076 32.7621C475.398 32.1741 475.559 31.4461 475.559 30.5781C475.559 29.7101 475.398 28.9821 475.076 28.3941C474.768 27.8061 474.355 27.3651 473.837 27.0711C473.319 26.7771 472.766 26.6301 472.178 26.6301C471.576 26.6301 471.016 26.7771 470.498 27.0711C469.98 27.3651 469.56 27.8061 469.238 28.3941C468.916 28.9821 468.755 29.7101 468.755 30.5781C468.755 31.4461 468.916 32.1741 469.238 32.7621C469.56 33.3501 469.973 33.7911 470.477 34.0851C470.995 34.3791 471.548 34.5261 472.136 34.5261ZM480.196 31.7121L479.986 21.0861H481.897L481.687 31.7121H480.196ZM480.994 35.8911C480.644 35.8911 480.35 35.7791 480.112 35.5551C479.888 35.3171 479.776 35.0301 479.776 34.6941C479.776 34.3581 479.888 34.0781 480.112 33.8541C480.35 33.6161 480.644 33.4971 480.994 33.4971C481.33 33.4971 481.61 33.6161 481.834 33.8541C482.072 34.0781 482.191 34.3581 482.191 34.6941C482.191 35.0301 482.072 35.3171 481.834 35.5551C481.61 35.7791 481.33 35.8911 480.994 35.8911Z" fill="white"/>
<path d="M458.119 71.2394C457.558 71.9823 456.442 71.9823 455.881 71.2394L439.918 50.1074C439.22 49.1834 439.879 47.8594 441.037 47.8594H472.963C474.121 47.8594 474.78 49.1834 474.082 50.1074L458.119 71.2394Z" fill="#171517"/>
<rect x="523" y="286" width="110" height="56.5723" rx="11.2207" fill="#171517"/>
<path d="M552.976 321.786V307.086H554.74V313.575H562.363V307.086H564.127V321.786H562.363V315.024H554.74V321.786H552.976ZM571.807 322.038C570.813 322.038 569.931 321.814 569.161 321.366C568.391 320.904 567.782 320.267 567.334 319.455C566.9 318.643 566.683 317.684 566.683 316.578C566.683 315.486 566.9 314.534 567.334 313.722C567.768 312.896 568.37 312.259 569.14 311.811C569.924 311.349 570.827 311.118 571.849 311.118C572.857 311.118 573.725 311.349 574.453 311.811C575.195 312.259 575.762 312.854 576.154 313.596C576.546 314.338 576.742 315.136 576.742 315.99C576.742 316.144 576.735 316.298 576.721 316.452C576.721 316.606 576.721 316.781 576.721 316.977H568.426C568.468 317.775 568.65 318.44 568.972 318.972C569.308 319.49 569.721 319.882 570.211 320.148C570.715 320.414 571.247 320.547 571.807 320.547C572.535 320.547 573.144 320.379 573.634 320.043C574.124 319.707 574.481 319.252 574.705 318.678H576.448C576.168 319.644 575.629 320.449 574.831 321.093C574.047 321.723 573.039 322.038 571.807 322.038ZM571.807 312.609C570.967 312.609 570.218 312.868 569.56 313.386C568.916 313.89 568.545 314.632 568.447 315.612H574.999C574.957 314.674 574.635 313.939 574.033 313.407C573.431 312.875 572.689 312.609 571.807 312.609ZM579.08 321.786V306.666H580.844V321.786H579.08ZM583.735 321.786V306.666H585.499V321.786H583.735ZM593.136 322.038C592.156 322.038 591.274 321.814 590.49 321.366C589.706 320.918 589.083 320.288 588.621 319.476C588.173 318.65 587.949 317.684 587.949 316.578C587.949 315.472 588.18 314.513 588.642 313.701C589.104 312.875 589.727 312.238 590.511 311.79C591.309 311.342 592.198 311.118 593.178 311.118C594.158 311.118 595.04 311.342 595.824 311.79C596.608 312.238 597.224 312.875 597.672 313.701C598.134 314.513 598.365 315.472 598.365 316.578C598.365 317.684 598.134 318.65 597.672 319.476C597.21 320.288 596.58 320.918 595.782 321.366C594.998 321.814 594.116 322.038 593.136 322.038ZM593.136 320.526C593.738 320.526 594.298 320.379 594.816 320.085C595.334 319.791 595.754 319.35 596.076 318.762C596.398 318.174 596.559 317.446 596.559 316.578C596.559 315.71 596.398 314.982 596.076 314.394C595.768 313.806 595.355 313.365 594.837 313.071C594.319 312.777 593.766 312.63 593.178 312.63C592.576 312.63 592.016 312.777 591.498 313.071C590.98 313.365 590.56 313.806 590.238 314.394C589.916 314.982 589.755 315.71 589.755 316.578C589.755 317.446 589.916 318.174 590.238 318.762C590.56 319.35 590.973 319.791 591.477 320.085C591.995 320.379 592.548 320.526 593.136 320.526ZM601.196 317.712L600.986 307.086H602.897L602.687 317.712H601.196ZM601.994 321.891C601.644 321.891 601.35 321.779 601.112 321.555C600.888 321.317 600.776 321.03 600.776 320.694C600.776 320.358 600.888 320.078 601.112 319.854C601.35 319.616 601.644 319.497 601.994 319.497C602.33 319.497 602.61 319.616 602.834 319.854C603.072 320.078 603.191 320.358 603.191 320.694C603.191 321.03 603.072 321.317 602.834 321.555C602.61 321.779 602.33 321.891 601.994 321.891Z" fill="white"/>
<path d="M579.119 357.239C578.558 357.982 577.442 357.982 576.881 357.239L560.918 336.107C560.22 335.183 560.879 333.859 562.037 333.859H593.963C595.121 333.859 595.78 335.183 595.082 336.107L579.119 357.239Z" fill="#171517"/>
<rect x="287" y="409" width="110" height="56.5723" rx="11.2207" fill="#171517"/>
<path d="M316.976 444.786V430.086H318.74V436.575H326.363V430.086H328.127V444.786H326.363V438.024H318.74V444.786H316.976ZM335.807 445.038C334.813 445.038 333.931 444.814 333.161 444.366C332.391 443.904 331.782 443.267 331.334 442.455C330.9 441.643 330.683 440.684 330.683 439.578C330.683 438.486 330.9 437.534 331.334 436.722C331.768 435.896 332.37 435.259 333.14 434.811C333.924 434.349 334.827 434.118 335.849 434.118C336.857 434.118 337.725 434.349 338.453 434.811C339.195 435.259 339.762 435.854 340.154 436.596C340.546 437.338 340.742 438.136 340.742 438.99C340.742 439.144 340.735 439.298 340.721 439.452C340.721 439.606 340.721 439.781 340.721 439.977H332.426C332.468 440.775 332.65 441.44 332.972 441.972C333.308 442.49 333.721 442.882 334.211 443.148C334.715 443.414 335.247 443.547 335.807 443.547C336.535 443.547 337.144 443.379 337.634 443.043C338.124 442.707 338.481 442.252 338.705 441.678H340.448C340.168 442.644 339.629 443.449 338.831 444.093C338.047 444.723 337.039 445.038 335.807 445.038ZM335.807 435.609C334.967 435.609 334.218 435.868 333.56 436.386C332.916 436.89 332.545 437.632 332.447 438.612H338.999C338.957 437.674 338.635 436.939 338.033 436.407C337.431 435.875 336.689 435.609 335.807 435.609ZM343.08 444.786V429.666H344.844V444.786H343.08ZM347.735 444.786V429.666H349.499V444.786H347.735ZM357.136 445.038C356.156 445.038 355.274 444.814 354.49 444.366C353.706 443.918 353.083 443.288 352.621 442.476C352.173 441.65 351.949 440.684 351.949 439.578C351.949 438.472 352.18 437.513 352.642 436.701C353.104 435.875 353.727 435.238 354.511 434.79C355.309 434.342 356.198 434.118 357.178 434.118C358.158 434.118 359.04 434.342 359.824 434.79C360.608 435.238 361.224 435.875 361.672 436.701C362.134 437.513 362.365 438.472 362.365 439.578C362.365 440.684 362.134 441.65 361.672 442.476C361.21 443.288 360.58 443.918 359.782 444.366C358.998 444.814 358.116 445.038 357.136 445.038ZM357.136 443.526C357.738 443.526 358.298 443.379 358.816 443.085C359.334 442.791 359.754 442.35 360.076 441.762C360.398 441.174 360.559 440.446 360.559 439.578C360.559 438.71 360.398 437.982 360.076 437.394C359.768 436.806 359.355 436.365 358.837 436.071C358.319 435.777 357.766 435.63 357.178 435.63C356.576 435.63 356.016 435.777 355.498 436.071C354.98 436.365 354.56 436.806 354.238 437.394C353.916 437.982 353.755 438.71 353.755 439.578C353.755 440.446 353.916 441.174 354.238 441.762C354.56 442.35 354.973 442.791 355.477 443.085C355.995 443.379 356.548 443.526 357.136 443.526ZM365.196 440.712L364.986 430.086H366.897L366.687 440.712H365.196ZM365.994 444.891C365.644 444.891 365.35 444.779 365.112 444.555C364.888 444.317 364.776 444.03 364.776 443.694C364.776 443.358 364.888 443.078 365.112 442.854C365.35 442.616 365.644 442.497 365.994 442.497C366.33 442.497 366.61 442.616 366.834 442.854C367.072 443.078 367.191 443.358 367.191 443.694C367.191 444.03 367.072 444.317 366.834 444.555C366.61 444.779 366.33 444.891 365.994 444.891Z" fill="white"/>
<path d="M343.119 480.239C342.558 480.982 341.442 480.982 340.881 480.239L324.918 459.107C324.22 458.183 324.879 456.859 326.037 456.859H357.963C359.121 456.859 359.78 458.183 359.082 459.107L343.119 480.239Z" fill="#171517"/>
<path d="M440.576 209.879C440.015 210.622 438.899 210.622 438.337 209.879L422.374 188.747C421.676 187.823 422.336 186.499 423.494 186.499H455.42C456.578 186.499 457.237 187.823 456.539 188.747L440.576 209.879Z" fill="#171517"/>
<rect x="377" y="138" width="125.379" height="56.5723" rx="11.2207" fill="#171517"/>
<path d="M408.702 173.786V159.086H410.466L418.299 170.867V159.086H420.063V173.786H418.299L410.466 162.005V173.786H408.702ZM423.076 173.786V163.37H424.84V173.786H423.076ZM423.95 162.236L421.073 160.514V159.149L423.95 160.913L426.827 159.149V160.514L423.95 162.236ZM433.289 173.786V158.666H435.053V165.155C435.403 164.511 435.9 164.014 436.544 163.664C437.188 163.3 437.888 163.118 438.644 163.118C439.848 163.118 440.814 163.496 441.542 164.252C442.27 164.994 442.634 166.142 442.634 167.696V173.786H440.891V167.885C440.891 165.715 440.016 164.63 438.266 164.63C437.356 164.63 436.593 164.959 435.977 165.617C435.361 166.261 435.053 167.185 435.053 168.389V173.786H433.289ZM448.771 174.038C447.903 174.038 447.182 173.891 446.608 173.597C446.034 173.303 445.607 172.911 445.327 172.421C445.047 171.931 444.907 171.399 444.907 170.825C444.907 169.761 445.313 168.942 446.125 168.368C446.937 167.794 448.043 167.507 449.443 167.507H452.257V167.381C452.257 166.471 452.019 165.785 451.543 165.323C451.067 164.847 450.43 164.609 449.632 164.609C448.946 164.609 448.351 164.784 447.847 165.134C447.357 165.47 447.049 165.967 446.923 166.625H445.117C445.187 165.869 445.439 165.232 445.873 164.714C446.321 164.196 446.874 163.804 447.532 163.538C448.19 163.258 448.89 163.118 449.632 163.118C451.088 163.118 452.18 163.51 452.908 164.294C453.65 165.064 454.021 166.093 454.021 167.381V173.786H452.446L452.341 171.917C452.047 172.505 451.613 173.009 451.039 173.429C450.479 173.835 449.723 174.038 448.771 174.038ZM449.044 172.547C449.716 172.547 450.29 172.372 450.766 172.022C451.256 171.672 451.627 171.217 451.879 170.657C452.131 170.097 452.257 169.509 452.257 168.893V168.872H449.59C448.554 168.872 447.819 169.054 447.385 169.418C446.965 169.768 446.755 170.209 446.755 170.741C446.755 171.287 446.951 171.728 447.343 172.064C447.749 172.386 448.316 172.547 449.044 172.547ZM449.564 162.236L446.687 160.514V159.149L449.564 160.913L452.441 159.149V160.514L449.564 162.236ZM461.414 174.038C460.434 174.038 459.552 173.814 458.768 173.366C457.984 172.918 457.361 172.288 456.899 171.476C456.451 170.65 456.227 169.684 456.227 168.578C456.227 167.472 456.458 166.513 456.92 165.701C457.382 164.875 458.005 164.238 458.789 163.79C459.587 163.342 460.476 163.118 461.456 163.118C462.436 163.118 463.318 163.342 464.102 163.79C464.886 164.238 465.502 164.875 465.95 165.701C466.412 166.513 466.643 167.472 466.643 168.578C466.643 169.684 466.412 170.65 465.95 171.476C465.488 172.288 464.858 172.918 464.06 173.366C463.276 173.814 462.394 174.038 461.414 174.038ZM461.414 172.526C462.016 172.526 462.576 172.379 463.094 172.085C463.612 171.791 464.032 171.35 464.354 170.762C464.676 170.174 464.837 169.446 464.837 168.578C464.837 167.71 464.676 166.982 464.354 166.394C464.046 165.806 463.633 165.365 463.115 165.071C462.597 164.777 462.044 164.63 461.456 164.63C460.854 164.63 460.294 164.777 459.776 165.071C459.258 165.365 458.838 165.806 458.516 166.394C458.194 166.982 458.033 167.71 458.033 168.578C458.033 169.446 458.194 170.174 458.516 170.762C458.838 171.35 459.251 171.791 459.755 172.085C460.273 172.379 460.826 172.526 461.414 172.526ZM469.473 169.712L469.263 159.086H471.174L470.964 169.712H469.473ZM470.271 173.891C469.921 173.891 469.627 173.779 469.389 173.555C469.165 173.317 469.053 173.03 469.053 172.694C469.053 172.358 469.165 172.078 469.389 171.854C469.627 171.616 469.921 171.497 470.271 171.497C470.607 171.497 470.887 171.616 471.111 171.854C471.349 172.078 471.468 172.358 471.468 172.694C471.468 173.03 471.349 173.317 471.111 173.555C470.887 173.779 470.607 173.891 470.271 173.891Z" fill="white"/>
<path d="M55.8296 240.879C55.2684 241.621 54.1524 241.621 53.5912 240.879L37.6282 219.747C36.9302 218.823 37.5893 217.499 38.7473 217.499H70.6735C71.8315 217.499 72.4906 218.823 71.7926 219.747L55.8296 240.879Z" fill="#171517"/>
<rect y="169" width="109.324" height="56.5723" rx="11.2207" fill="#171517"/>
<path d="M32.2629 204.786V190.086H34.0269V196.575H41.6499V190.086H43.4139V204.786H41.6499V198.024H34.0269V204.786H32.2629ZM51.1569 205.038C50.1769 205.038 49.2949 204.814 48.5109 204.366C47.7269 203.918 47.1039 203.288 46.6419 202.476C46.1939 201.65 45.9699 200.684 45.9699 199.578C45.9699 198.472 46.2009 197.513 46.6629 196.701C47.1249 195.875 47.7479 195.238 48.5319 194.79C49.3299 194.342 50.2189 194.118 51.1989 194.118C52.1789 194.118 53.0609 194.342 53.8449 194.79C54.6289 195.238 55.2449 195.875 55.6929 196.701C56.1549 197.513 56.3859 198.472 56.3859 199.578C56.3859 200.684 56.1549 201.65 55.6929 202.476C55.2309 203.288 54.6009 203.918 53.8029 204.366C53.0189 204.814 52.1369 205.038 51.1569 205.038ZM51.1569 203.526C51.7589 203.526 52.3189 203.379 52.8369 203.085C53.3549 202.791 53.7749 202.35 54.0969 201.762C54.4189 201.174 54.5799 200.446 54.5799 199.578C54.5799 198.71 54.4189 197.982 54.0969 197.394C53.7889 196.806 53.3759 196.365 52.8579 196.071C52.3399 195.777 51.7869 195.63 51.1989 195.63C50.5969 195.63 50.0369 195.777 49.5189 196.071C49.0009 196.365 48.5809 196.806 48.2589 197.394C47.9369 197.982 47.7759 198.71 47.7759 199.578C47.7759 200.446 47.9369 201.174 48.2589 201.762C48.5809 202.35 48.9939 202.791 49.4979 203.085C50.0159 203.379 50.5689 203.526 51.1569 203.526ZM58.8386 204.786V189.666H60.6026V204.786H58.8386ZM66.9589 205.038C66.0909 205.038 65.3699 204.891 64.7959 204.597C64.2219 204.303 63.7949 203.911 63.5149 203.421C63.2349 202.931 63.0949 202.399 63.0949 201.825C63.0949 200.761 63.5009 199.942 64.3129 199.368C65.1249 198.794 66.2309 198.507 67.6309 198.507H70.4449V198.381C70.4449 197.471 70.2069 196.785 69.7309 196.323C69.2549 195.847 68.6179 195.609 67.8199 195.609C67.1339 195.609 66.5389 195.784 66.0349 196.134C65.5449 196.47 65.2369 196.967 65.1109 197.625H63.3049C63.3749 196.869 63.6269 196.232 64.0609 195.714C64.5089 195.196 65.0619 194.804 65.7199 194.538C66.3779 194.258 67.0779 194.118 67.8199 194.118C69.2759 194.118 70.3679 194.51 71.0959 195.294C71.8379 196.064 72.2089 197.093 72.2089 198.381V204.786H70.6339L70.5289 202.917C70.2349 203.505 69.8009 204.009 69.2269 204.429C68.6669 204.835 67.9109 205.038 66.9589 205.038ZM67.2319 203.547C67.9039 203.547 68.4779 203.372 68.9539 203.022C69.4439 202.672 69.8149 202.217 70.0669 201.657C70.3189 201.097 70.4449 200.509 70.4449 199.893V199.872H67.7779C66.7419 199.872 66.0069 200.054 65.5729 200.418C65.1529 200.768 64.9429 201.209 64.9429 201.741C64.9429 202.287 65.1389 202.728 65.5309 203.064C65.9369 203.386 66.5039 203.547 67.2319 203.547ZM75.2332 200.712L75.0232 190.086H76.9342L76.7242 200.712H75.2332ZM76.0312 204.891C75.6812 204.891 75.3872 204.779 75.1492 204.555C74.9252 204.317 74.8132 204.03 74.8132 203.694C74.8132 203.358 74.9252 203.078 75.1492 202.854C75.3872 202.616 75.6812 202.497 76.0312 202.497C76.3672 202.497 76.6472 202.616 76.8712 202.854C77.1092 203.078 77.2282 203.358 77.2282 203.694C77.2282 204.03 77.1092 204.317 76.8712 204.555C76.6472 204.779 76.3672 204.891 76.0312 204.891Z" fill="white"/>
<path d="M119.591 483.879C119.03 484.621 117.914 484.621 117.353 483.879L101.39 462.747C100.692 461.823 101.351 460.499 102.509 460.499H134.435C135.593 460.499 136.252 461.823 135.554 462.747L119.591 483.879Z" fill="#171517"/>
<rect x="40" y="412" width="155.959" height="56.5723" rx="11.2207" fill="#171517"/>
<path d="M68.9407 447.786V433.086H70.7047L78.5377 444.867V433.086H80.3017V447.786H78.5377L70.7047 436.005V447.786H68.9407ZM86.7792 448.038C85.9112 448.038 85.1902 447.891 84.6162 447.597C84.0422 447.303 83.6152 446.911 83.3352 446.421C83.0552 445.931 82.9152 445.399 82.9152 444.825C82.9152 443.761 83.3212 442.942 84.1332 442.368C84.9452 441.794 86.0512 441.507 87.4512 441.507H90.2652V441.381C90.2652 440.471 90.0272 439.785 89.5512 439.323C89.0752 438.847 88.4382 438.609 87.6402 438.609C86.9542 438.609 86.3592 438.784 85.8552 439.134C85.3652 439.47 85.0572 439.967 84.9312 440.625H83.1252C83.1952 439.869 83.4472 439.232 83.8812 438.714C84.3292 438.196 84.8822 437.804 85.5402 437.538C86.1982 437.258 86.8982 437.118 87.6402 437.118C89.0962 437.118 90.1882 437.51 90.9162 438.294C91.6582 439.064 92.0292 440.093 92.0292 441.381V447.786H90.4542L90.3492 445.917C90.0552 446.505 89.6212 447.009 89.0472 447.429C88.4872 447.835 87.7312 448.038 86.7792 448.038ZM87.0522 446.547C87.7242 446.547 88.2982 446.372 88.7742 446.022C89.2642 445.672 89.6352 445.217 89.8872 444.657C90.1392 444.097 90.2652 443.509 90.2652 442.893V442.872H87.5982C86.5622 442.872 85.8272 443.054 85.3932 443.418C84.9732 443.768 84.7632 444.209 84.7632 444.741C84.7632 445.287 84.9592 445.728 85.3512 446.064C85.7572 446.386 86.3242 446.547 87.0522 446.547ZM94.6755 447.786V437.37H96.2715L96.3975 438.882C96.7335 438.322 97.1815 437.888 97.7415 437.58C98.3015 437.272 98.9315 437.118 99.6315 437.118C100.458 437.118 101.165 437.286 101.753 437.622C102.355 437.958 102.817 438.469 103.139 439.155C103.503 438.525 104 438.028 104.63 437.664C105.274 437.3 105.967 437.118 106.709 437.118C107.955 437.118 108.949 437.496 109.691 438.252C110.433 438.994 110.804 440.142 110.804 441.696V447.786H109.061V441.885C109.061 440.807 108.844 439.995 108.41 439.449C107.976 438.903 107.353 438.63 106.541 438.63C105.701 438.63 105.001 438.959 104.441 439.617C103.895 440.261 103.622 441.185 103.622 442.389V447.786H101.858V441.885C101.858 440.807 101.641 439.995 101.207 439.449C100.773 438.903 100.15 438.63 99.3375 438.63C98.5115 438.63 97.8185 438.959 97.2585 439.617C96.7125 440.261 96.4395 441.185 96.4395 442.389V447.786H94.6755ZM116.926 448.038C116.058 448.038 115.337 447.891 114.763 447.597C114.189 447.303 113.762 446.911 113.482 446.421C113.202 445.931 113.062 445.399 113.062 444.825C113.062 443.761 113.468 442.942 114.28 442.368C115.092 441.794 116.198 441.507 117.598 441.507H120.412V441.381C120.412 440.471 120.174 439.785 119.698 439.323C119.222 438.847 118.585 438.609 117.787 438.609C117.101 438.609 116.506 438.784 116.002 439.134C115.512 439.47 115.204 439.967 115.078 440.625H113.272C113.342 439.869 113.594 439.232 114.028 438.714C114.476 438.196 115.029 437.804 115.687 437.538C116.345 437.258 117.045 437.118 117.787 437.118C119.243 437.118 120.335 437.51 121.063 438.294C121.805 439.064 122.176 440.093 122.176 441.381V447.786H120.601L120.496 445.917C120.202 446.505 119.768 447.009 119.194 447.429C118.634 447.835 117.878 448.038 116.926 448.038ZM117.199 446.547C117.871 446.547 118.445 446.372 118.921 446.022C119.411 445.672 119.782 445.217 120.034 444.657C120.286 444.097 120.412 443.509 120.412 442.893V442.872H117.745C116.709 442.872 115.974 443.054 115.54 443.418C115.12 443.768 114.91 444.209 114.91 444.741C114.91 445.287 115.106 445.728 115.498 446.064C115.904 446.386 116.471 446.547 117.199 446.547ZM128.812 448.038C127.566 448.038 126.53 447.723 125.704 447.093C124.878 446.463 124.395 445.609 124.255 444.531H126.061C126.173 445.077 126.46 445.553 126.922 445.959C127.398 446.351 128.035 446.547 128.833 446.547C129.575 446.547 130.121 446.393 130.471 446.085C130.821 445.763 130.996 445.385 130.996 444.951C130.996 444.321 130.765 443.901 130.303 443.691C129.855 443.481 129.218 443.292 128.392 443.124C127.832 443.012 127.272 442.851 126.712 442.641C126.152 442.431 125.683 442.137 125.305 441.759C124.927 441.367 124.738 440.856 124.738 440.226C124.738 439.316 125.074 438.574 125.746 438C126.432 437.412 127.356 437.118 128.518 437.118C129.624 437.118 130.527 437.398 131.227 437.958C131.941 438.504 132.354 439.288 132.466 440.31H130.723C130.653 439.778 130.422 439.365 130.03 439.071C129.652 438.763 129.141 438.609 128.497 438.609C127.867 438.609 127.377 438.742 127.027 439.008C126.691 439.274 126.523 439.624 126.523 440.058C126.523 440.478 126.74 440.807 127.174 441.045C127.622 441.283 128.224 441.486 128.98 441.654C129.624 441.794 130.233 441.969 130.807 442.179C131.395 442.375 131.871 442.676 132.235 443.082C132.613 443.474 132.802 444.048 132.802 444.804C132.816 445.742 132.459 446.519 131.731 447.135C131.017 447.737 130.044 448.038 128.812 448.038ZM135.322 447.786V432.666H137.086V441.759L141.349 437.37H143.512L138.892 442.074L144.1 447.786H141.853L137.086 442.389V447.786H135.322ZM149.287 448.038C148.419 448.038 147.698 447.891 147.124 447.597C146.55 447.303 146.123 446.911 145.843 446.421C145.563 445.931 145.423 445.399 145.423 444.825C145.423 443.761 145.829 442.942 146.641 442.368C147.453 441.794 148.559 441.507 149.959 441.507H152.773V441.381C152.773 440.471 152.535 439.785 152.059 439.323C151.583 438.847 150.946 438.609 150.148 438.609C149.462 438.609 148.867 438.784 148.363 439.134C147.873 439.47 147.565 439.967 147.439 440.625H145.633C145.703 439.869 145.955 439.232 146.389 438.714C146.837 438.196 147.39 437.804 148.048 437.538C148.706 437.258 149.406 437.118 150.148 437.118C151.604 437.118 152.696 437.51 153.424 438.294C154.166 439.064 154.537 440.093 154.537 441.381V447.786H152.962L152.857 445.917C152.563 446.505 152.129 447.009 151.555 447.429C150.995 447.835 150.239 448.038 149.287 448.038ZM149.56 446.547C150.232 446.547 150.806 446.372 151.282 446.022C151.772 445.672 152.143 445.217 152.395 444.657C152.647 444.097 152.773 443.509 152.773 442.893V442.872H150.106C149.07 442.872 148.335 443.054 147.901 443.418C147.481 443.768 147.271 444.209 147.271 444.741C147.271 445.287 147.467 445.728 147.859 446.064C148.265 446.386 148.832 446.547 149.56 446.547ZM157.183 447.786V437.37H158.779L158.926 439.365C159.248 438.679 159.738 438.133 160.396 437.727C161.054 437.321 161.866 437.118 162.832 437.118V438.966H162.349C161.733 438.966 161.166 439.078 160.648 439.302C160.13 439.512 159.717 439.876 159.409 440.394C159.101 440.912 158.947 441.626 158.947 442.536V447.786H157.183ZM165.19 443.712L164.98 433.086H166.891L166.681 443.712H165.19ZM165.988 447.891C165.638 447.891 165.344 447.779 165.106 447.555C164.882 447.317 164.77 447.03 164.77 446.694C164.77 446.358 164.882 446.078 165.106 445.854C165.344 445.616 165.638 445.497 165.988 445.497C166.324 445.497 166.604 445.616 166.828 445.854C167.066 446.078 167.185 446.358 167.185 446.694C167.185 447.03 167.066 447.317 166.828 447.555C166.604 447.779 166.324 447.891 165.988 447.891Z" fill="white"/>
</svg>
