<svg width="20" height="24" viewBox="0 0 20 24" fill="none" xmlns="http://www.w3.org/2000/svg">
<path d="M18.2905 15.4947L13.935 14.9201C13.7801 14.9009 13.6228 14.9154 13.4739 14.9626C13.325 15.0098 13.188 15.0886 13.0721 15.1937L10.7909 17.202C9.36996 16.3456 5.66784 11.7599 5.09891 10.1621L7.4944 8.52041C7.62907 8.4278 7.74131 8.30595 7.82282 8.16388C7.90434 8.0218 7.95304 7.86313 7.96533 7.69958L8.33827 3.10842C8.3798 2.60696 8.22585 2.1089 7.90892 1.71939C7.59198 1.32987 7.13687 1.07937 6.63964 1.02078L2.37676 0.511868C2.09687 0.480405 1.81353 0.51169 1.54712 0.603472C1.28071 0.695254 1.03785 0.845251 0.836019 1.04267C0.50408 1.37991 0.29993 1.82321 0.258923 2.2958L0.038429 4.3424C-0.280063 7.65854 1.3995 12.1403 4.39387 16.0392C7.59784 20.1871 11.5558 22.8247 15.2553 23.2734L17.3813 23.4978C17.4611 23.5015 17.5411 23.5006 17.6208 23.495C18.0918 23.5007 18.5475 23.3265 18.8956 23.0076C19.2437 22.6886 19.4585 22.2487 19.4964 21.7768L19.9918 17.6015C20.0381 17.096 19.8871 16.5921 19.5706 16.1964C19.2542 15.8008 18.7971 15.5442 18.2959 15.481L18.2905 15.4947Z" fill="#171517"/>
</svg>
