<svg width="762" height="748" viewBox="0 0 762 748" fill="none" xmlns="http://www.w3.org/2000/svg">
<path d="M133.926 125.034C99.1897 124.224 65.58 138.653 40.4723 165.158C15.3646 191.664 0.809573 228.08 0 266.415C0.205386 273.435 2.85336 280.097 7.39446 285.019C11.9356 289.941 18.02 292.743 24.384 292.842C30.748 292.941 36.9023 290.331 41.5676 285.553C46.2329 280.775 49.0511 274.196 49.4362 267.185C49.7296 242.966 58.728 219.866 74.4528 202.97C90.1776 186.073 111.34 176.763 133.285 177.087C155.23 177.411 176.16 187.343 191.47 204.697C206.78 222.052 215.215 245.409 214.922 269.628C215.127 276.648 217.776 283.311 222.317 288.232C226.858 293.154 232.943 295.956 239.307 296.055C245.671 296.154 251.825 293.544 256.49 288.766C261.156 283.988 263.973 277.41 264.358 270.398C264.482 232.048 250.821 195.209 226.37 167.959C201.919 140.709 168.675 125.272 133.926 125.034Z" fill="#171517"/>
<path d="M450.912 125.006C418.212 124.741 386.749 138.344 363.426 162.832C340.103 187.32 326.826 220.691 326.508 255.624C326.798 262.007 329.376 268.026 333.707 272.434C338.038 276.842 343.79 279.301 349.772 279.301C355.754 279.301 361.506 276.842 365.837 272.434C370.168 268.026 372.746 262.007 373.036 255.624C373.574 233.949 382.012 213.355 396.553 198.227C411.094 183.1 430.589 174.635 450.885 174.635C471.181 174.635 490.676 183.1 505.216 198.227C519.757 213.355 528.195 233.949 528.733 255.624C528.733 262.224 531.187 268.554 535.555 273.22C539.923 277.887 545.847 280.507 552.025 280.507C558.202 280.507 564.127 277.887 568.495 273.22C572.863 268.554 575.316 262.224 575.316 255.624C574.983 220.696 561.702 187.333 538.382 162.849C515.063 138.364 483.608 124.756 450.912 125.006Z" fill="#171517"/>
<path d="M736.731 442.723C740.299 442.712 743.825 443.526 747.053 445.107C750.281 446.687 753.131 448.995 755.397 451.862C757.662 454.729 759.286 458.084 760.152 461.684C761.017 465.284 761.101 469.039 760.4 472.678C753.405 508.628 741.619 543.386 725.381 575.946C697.5 631.431 657.684 679.478 609.031 716.346C582.34 736.691 556.446 747.012 533.29 747.012C523.264 747.073 513.336 744.951 504.146 740.783C496.759 737.392 489.958 732.763 484.012 727.081C482.301 725.42 480.59 723.701 478.936 721.922C464.947 705.949 452.581 688.516 442.035 669.902C439.583 666.165 437.302 662.368 435.135 658.928C314.393 672.689 188.291 604.832 129.945 492.845C80.6105 398.533 81.6371 277.886 129.945 180.549C136.238 167.741 143.365 155.394 151.276 143.596C153.785 139.859 156.352 136.181 159.146 132.444C161.941 128.707 165.876 123.606 169.583 119.038C174.26 113.107 178.709 108.303 183.158 103.677C267.34 14.0509 401.941 -21.7756 517.891 14.7034C640.172 52.9026 735.704 173.787 761.598 314.779C762.241 318.39 762.113 322.105 761.225 325.659C760.337 329.213 758.709 332.52 756.458 335.349C754.206 338.177 751.385 340.457 748.193 342.027C745.001 343.598 741.516 344.42 737.986 344.437C732.358 344.424 726.912 342.366 722.589 338.619C718.267 334.871 715.341 329.669 714.316 323.914C692.016 200.775 609.545 95.3728 504.032 62.512C404.735 31.4307 289.583 62.096 217.492 138.791C214.013 142.587 210.363 146.502 206.599 151.01L206.085 151.604C200.382 158.603 195.363 165.365 190.8 172.068C186.237 178.77 182.53 184.997 178.823 191.7C177.796 193.479 176.884 195.26 175.971 197.098C131.599 281.03 129.431 386.907 172.321 469.059C189.581 501.68 213.274 530.141 241.846 552.576C267.12 572.942 295.767 588.322 326.37 597.953C334.241 600.444 342.283 602.757 350.382 604.655H350.838C361.873 607.331 373.053 609.312 384.317 610.586C400.738 612.336 417.288 612.336 433.709 610.586C440.781 609.875 447.796 608.866 454.754 607.502C460.457 606.434 466.161 605.13 471.864 603.528C476.58 602.009 481.145 600.023 485.495 597.597C496.383 592.078 506.918 585.836 517.035 578.911C535.622 566.441 552.358 551.215 566.712 533.714C591.123 503.581 604.354 464.967 594.545 425.819C592.821 418.354 589.571 411.363 585.013 405.324C580.456 399.284 574.7 394.338 568.138 390.822C556.492 384.778 543.623 381.727 530.61 381.925C518.338 382.004 506.169 384.251 494.621 388.569C455.096 403.339 425.381 442.605 418.993 488.633C418.104 505.978 419.777 523.361 423.955 540.178C424.379 541.102 424.686 542.08 424.868 543.086C426.748 549.235 426.289 555.9 423.585 561.708C420.881 567.515 416.139 572.024 410.335 574.305C404.531 576.586 398.107 576.463 392.386 573.966C386.665 571.469 382.083 566.786 379.583 560.881C379.535 560.747 379.535 560.599 379.583 560.465C379.184 559.397 378.842 558.33 378.557 557.321C370.176 533.057 367.745 507.003 371.484 481.516C380.496 417.455 422.815 362.884 478.595 341.649C516.978 327.414 558.841 329.253 590.723 346.692C603.22 353.45 614.188 362.903 622.892 374.421C631.596 385.938 637.838 399.255 641.199 413.481L643.081 421.785C651.122 463.306 640.571 506.131 619.469 541.839C597.409 578.862 566.002 608.879 528.67 628.618C527.928 629.093 527.131 629.449 526.389 629.864C519.081 633.684 511.579 637.089 503.917 640.066C499.982 641.49 488.005 643.625 486.807 649.023C485.78 653.115 499.012 668.36 501.579 671.8C505.349 677.199 509.506 682.294 514.012 687.043C514.868 687.992 515.78 688.883 516.693 689.773C535.001 707.212 567.511 685.798 580.629 675.774C590.382 668.366 599.766 660.447 608.746 652.048C662.127 602.13 698.759 535.766 713.29 462.654C714.423 457.048 717.366 452.014 721.63 448.388C725.894 444.763 731.223 442.763 736.731 442.723Z" fill="#171517"/>
</svg>
