<svg width="239" height="75" viewBox="0 0 239 75" fill="none" xmlns="http://www.w3.org/2000/svg">
<path d="M103.644 35.2002C104.382 34.0817 104.765 32.7659 104.741 31.4258C104.738 30.2329 104.424 29.0613 103.831 28.0262C103.208 26.9601 102.274 26.1101 101.154 25.5903C99.7805 24.9552 98.2766 24.6526 96.7642 24.7069H89.2422V47.1925H92.6418V38.1179H96.6571L101.154 47.1925H105.116L100.324 37.6361C101.681 37.2351 102.854 36.3737 103.644 35.2002ZM96.7909 35.5482H92.6418V27.5176H96.7642C97.3779 27.4575 97.9974 27.5214 98.586 27.7053C99.1746 27.8892 99.7202 28.1895 100.191 28.5883C100.551 28.9702 100.832 29.4203 101.015 29.9122C101.199 30.4041 101.283 30.9279 101.261 31.4526C101.282 31.9875 101.196 32.5212 101.007 33.0223C100.819 33.5234 100.532 33.9817 100.164 34.3703C99.7127 34.788 99.1804 35.1082 98.6001 35.3108C98.0198 35.5135 97.4039 35.5943 96.7909 35.5482Z" fill="#171517"/>
<path d="M118.608 31.9083C117.372 31.1968 115.966 30.8359 114.54 30.8643C113.058 30.8241 111.594 31.1947 110.31 31.935C109.162 32.6489 108.235 33.6685 107.633 34.8796C106.897 36.2352 106.51 37.7534 106.509 39.2964C106.484 40.8038 106.833 42.2939 107.526 43.6329C108.194 44.844 109.186 45.8451 110.391 46.5239C111.656 47.2345 113.088 47.5949 114.54 47.5679C116.243 47.6173 117.913 47.0889 119.278 46.0688C120.559 45.138 121.5 43.8119 121.955 42.2945H118.368C118.073 43.0214 117.57 43.6453 116.922 44.0879C116.193 44.5434 115.346 44.776 114.486 44.7572C113.319 44.7707 112.189 44.3401 111.327 43.5526C110.396 42.6612 109.848 41.4416 109.802 40.153H122.195C122.195 39.8585 122.195 39.5908 122.195 39.3499V38.6539C122.232 37.3118 121.918 35.9834 121.285 34.7993C120.67 33.6118 119.745 32.6129 118.608 31.9083ZM109.855 37.717C109.906 37.127 110.074 36.5531 110.35 36.0291C110.626 35.505 111.004 35.0414 111.461 34.6654C112.345 33.9944 113.431 33.645 114.54 33.675C115.656 33.6306 116.747 34.0135 117.591 34.7457C118.001 35.1254 118.329 35.5848 118.554 36.0958C118.78 36.6068 118.898 37.1585 118.903 37.717H109.855Z" fill="#171517"/>
<path d="M130.389 34.4244C131.081 33.9988 131.879 33.7762 132.691 33.7819C133.64 33.7465 134.576 34.0085 135.368 34.5314C135.729 34.7638 136.041 35.0656 136.284 35.4195C136.528 35.7734 136.699 36.1721 136.787 36.5926H140.24C139.903 34.9142 138.947 33.4238 137.563 32.4167C136.129 31.3464 134.372 30.7986 132.584 30.8642C131.121 30.8338 129.677 31.2041 128.408 31.9349C127.237 32.6192 126.275 33.6093 125.624 34.7991C124.906 36.1298 124.547 37.6241 124.58 39.1356C124.547 40.6557 124.907 42.1586 125.624 43.4989C126.299 44.7274 127.299 45.7461 128.515 46.4435C129.792 47.1515 131.232 47.5115 132.691 47.4874C134.484 47.5564 136.245 46.9979 137.67 45.9081C139.053 44.9233 140.01 43.4496 140.347 41.7857H136.68C136.495 42.6391 135.986 43.3876 135.261 43.8737C134.466 44.3888 133.53 44.6416 132.584 44.5964C131.772 44.6021 130.974 44.3795 130.282 43.954C129.556 43.5032 128.964 42.8652 128.569 42.1069C128.127 41.2085 127.906 40.2171 127.926 39.2159C127.893 38.1878 128.114 37.1673 128.569 36.2446C128.986 35.4744 129.619 34.8421 130.389 34.4244Z" fill="#171517"/>
<path d="M165.992 31.9079C164.757 31.2471 163.377 30.9014 161.976 30.9014C160.576 30.9014 159.196 31.2471 157.961 31.9079C156.699 32.5748 155.644 33.5746 154.91 34.7989C154.171 36.1419 153.802 37.6567 153.839 39.1889C153.799 40.7214 154.169 42.2369 154.91 43.579C155.575 44.7982 156.567 45.8084 157.774 46.4967C159.021 47.2042 160.435 47.5647 161.869 47.5407C163.311 47.5604 164.733 47.2004 165.992 46.4967C167.2 45.8014 168.199 44.7935 168.883 43.579C169.624 42.2369 169.993 40.7214 169.954 39.1889C169.991 37.6567 169.621 36.1419 168.883 34.7989C168.185 33.6019 167.189 32.606 165.992 31.9079ZM165.831 42.2138C165.452 42.9675 164.867 43.5986 164.145 44.034C163.454 44.4367 162.669 44.6491 161.869 44.6497C161.054 44.6548 160.254 44.4287 159.563 43.9975C158.871 43.5663 158.316 42.9478 157.961 42.2138C157.522 41.278 157.319 40.2483 157.372 39.2157C157.336 38.1786 157.557 37.1487 158.015 36.2176C158.289 35.6771 158.671 35.1986 159.138 34.8113C159.604 34.4241 160.145 34.1364 160.727 33.9658C161.308 33.7953 161.919 33.7457 162.52 33.8199C163.122 33.8941 163.702 34.0906 164.225 34.3973C164.947 34.826 165.524 35.4596 165.885 36.2176C166.343 37.1487 166.564 38.1786 166.527 39.2157C166.547 40.2573 166.308 41.2875 165.831 42.2138Z" fill="#171517"/>
<path d="M188.095 43.2578L184.642 31.2388H180.841L177.388 43.2578L174.282 31.2388H170.883L175.567 47.1928H179.074L182.741 34.6384L186.409 47.1928H189.915L194.6 31.2388H191.2L188.095 43.2578Z" fill="#171517"/>
<path d="M208.978 33.7013C208.455 32.8047 207.683 32.0792 206.756 31.6133C205.728 31.0937 204.588 30.8363 203.437 30.8638C202 30.848 200.586 31.2177 199.341 31.9345C198.194 32.6622 197.269 33.6897 196.664 34.9058C195.983 36.2288 195.642 37.701 195.674 39.1888C195.642 40.6852 195.983 42.166 196.664 43.4986C197.274 44.7109 198.199 45.7371 199.341 46.4699C200.571 47.2251 201.994 47.6064 203.437 47.5674C204.646 47.6141 205.843 47.3171 206.89 46.7108C207.723 46.191 208.442 45.5081 209.005 44.7031V47.1926H212.431V24.707H208.978V33.7013ZM207.586 43.097C207.135 43.5968 206.58 43.9922 205.961 44.2557C205.341 44.5192 204.672 44.6445 203.999 44.6228C203.058 44.6543 202.128 44.4126 201.322 43.9268C200.557 43.4751 199.935 42.8162 199.529 42.0263C199.112 41.1952 198.892 40.2792 198.886 39.3494C198.831 37.9115 199.34 36.5089 200.305 35.4412C201.261 34.4996 202.55 33.9718 203.892 33.9718C205.234 33.9718 206.522 34.4996 207.479 35.4412C208.434 36.5131 208.933 37.9152 208.871 39.3494C208.937 40.717 208.478 42.0581 207.586 43.097Z" fill="#171517"/>
<path d="M219.439 24.6802H216.039V47.1658H219.439V24.6802Z" fill="#171517"/>
<path d="M235.265 31.2388L230.152 43.0437L225.28 31.2388H221.586L227.877 45.8544H228.813L226.538 50.8601H223.219V54.2329H224.986H228.573L238.852 31.2388H235.265Z" fill="#171517"/>
<path d="M143.289 47.1928H146.689V34.6384H150.062H152.578V31.2388H143.289V47.1928Z" fill="#171517"/>
<g clip-path="url(#clip0_577_16497)">
<path d="M43.7776 17.79L43.4773 17.6986L43.1641 17.5942L43.4773 17.6856L43.7776 17.79Z" fill="#171517"/>
<path d="M24.2149 53.5786L24.7237 53.9829L13.988 66.7776L11.9922 65.0951L22.7279 52.3004L23.2236 52.7569L29.3936 45.4009C29.706 45.6999 30.0371 45.9787 30.385 46.2356L24.2149 53.5786Z" fill="#171517"/>
<path d="M49.9796 21.2335C49.9242 21.1828 49.8629 21.139 49.7969 21.103L49.9796 21.2335Z" fill="#171517"/>
<path d="M54.5784 26.4377L54.4609 26.2158C54.5051 26.287 54.5444 26.3611 54.5784 26.4377Z" fill="#171517"/>
<path d="M55.5268 28.1333C55.4354 27.9376 55.331 27.7548 55.2266 27.5591C55.3399 27.7433 55.4402 27.9351 55.5268 28.1333Z" fill="#171517"/>
<path d="M57.4017 33.7288C57.4017 33.52 57.3234 33.3112 57.2712 33.1024C57.2189 32.8936 57.1928 32.6717 57.1406 32.4629L57.2973 33.1024C57.3103 33.3112 57.4017 33.52 57.4017 33.7288Z" fill="#171517"/>
<path d="M57.5679 35.0327C57.5679 34.8239 57.5679 34.6151 57.4766 34.4062L57.5679 35.0327Z" fill="#171517"/>
<path d="M57.4017 40.9404C57.4017 41.1492 57.4017 41.3581 57.2973 41.5669C57.1928 41.7757 57.2059 41.9976 57.1406 42.2064C57.1406 41.9976 57.245 41.7887 57.2842 41.5669C57.3234 41.345 57.4017 41.1492 57.4017 40.9404Z" fill="#171517"/>
<path d="M57.5705 39.6367L57.4922 40.2762C57.4922 40.0674 57.5575 39.8455 57.5836 39.6367H57.5705Z" fill="#171517"/>
<path d="M54.4119 48.5049C54.3601 48.5991 54.3034 48.6906 54.2422 48.779L54.4119 48.5049Z" fill="#171517"/>
<path d="M54.589 48.2577C54.589 48.349 54.4715 48.4404 54.4062 48.5317L54.5629 48.2446L54.589 48.2577Z" fill="#171517"/>
<path d="M55.5294 46.5356C55.438 46.7314 55.3466 46.9141 55.2422 47.0968C55.3523 46.9153 55.4526 46.728 55.5424 46.5356H55.5294Z" fill="#171517"/>
<path d="M51.2729 52.3138L50.803 52.7445L50.4375 53.0577L50.7899 52.7315C50.9466 52.601 51.1032 52.4443 51.2598 52.3008L51.2729 52.3138Z" fill="#171517"/>
<path d="M44.0783 56.7612L43.4778 56.9831L42.9688 57.1397L43.4778 56.97L44.0783 56.7612Z" fill="#171517"/>
<path d="M45.2738 56.2783L44.6994 56.5263L44.0859 56.7612L44.6864 56.5132C44.8865 56.4462 45.0826 56.3678 45.2738 56.2783Z" fill="#171517"/>
<path d="M37.6735 57.9873H37.0078C37.2295 58.0003 37.4518 58.0003 37.6735 57.9873Z" fill="#171517"/>
<path d="M44.0848 17.8945C43.889 17.8292 43.6932 17.7509 43.4844 17.6987L44.0848 17.8945Z" fill="#171517"/>
<path d="M49.9796 21.2335C49.9242 21.1828 49.8629 21.139 49.7969 21.103L49.9796 21.2335Z" fill="#171517"/>
<path d="M57.2605 33.1021C57.2605 33.3109 57.3388 33.5197 57.3649 33.7285C57.3649 33.5197 57.2866 33.3109 57.2344 33.1021H57.2605Z" fill="#171517"/>
<path d="M73.9043 31.4986H73.8781L73.6562 30.2065H73.6693L73.9043 31.4986Z" fill="#171517"/>
<path d="M57.3935 40.9404C57.3935 41.1492 57.3935 41.3581 57.2891 41.5669C57.2891 41.3581 57.3935 41.1492 57.3935 40.9404Z" fill="#171517"/>
<path d="M50.8733 52.744L50.5078 53.0572L50.8602 52.731L50.8733 52.744Z" fill="#171517"/>
<path d="M43.4844 56.97L44.0848 56.7612L43.4844 56.9831V56.97Z" fill="#171517"/>
<path d="M44.6994 56.5267L44.0859 56.7616L44.6864 56.5137L44.6994 56.5267Z" fill="#171517"/>
<path d="M30.385 28.4326C30.0371 28.6895 29.706 28.9683 29.3936 29.2673L23.2236 21.9114L22.9496 22.1722C22.8714 22.1722 22.8061 22.3026 22.7279 22.3678L11.9922 9.57311L13.988 7.89062L24.7759 20.6854L24.2671 21.0897L30.385 28.4326Z" fill="#171517"/>
<path d="M33.8426 26.6978C33.4285 26.8227 33.0232 26.9752 32.6295 27.1543L29.3422 18.1289C29.213 18.1731 29.0867 18.2254 28.964 18.2854L28.7291 18.3767L23.0156 2.72562L25.455 1.82568L31.1685 17.4767L30.5684 17.6724L33.8426 26.6978Z" fill="#171517"/>
<path d="M38.3199 0V16.6944H37.6807V26.2807H36.3762V16.6684H35.7109V0H38.3199Z" fill="#171517"/>
<path d="M50.991 2.69954L45.2775 18.3506C45.0948 18.2723 44.8992 18.181 44.7035 18.1158L41.4163 27.1282C41.0226 26.9491 40.6173 26.7966 40.2031 26.6717L43.4773 17.6724L43.7773 17.7637L43.4773 17.6593L43.1642 17.568H43.0208H42.8642L48.5777 1.91699L49.2039 2.15176L50.4301 2.5952L50.991 2.69954Z" fill="#171517"/>
<path d="M61.9994 9.57311L51.2637 22.3548L50.8724 21.9244L44.7023 29.2804C44.3967 28.974 44.0649 28.6947 43.7109 28.4457L49.881 21.1027C49.947 21.1386 50.0083 21.1824 50.0636 21.2331L49.881 21.0897L49.3462 20.6854L60.0036 7.89062L60.5254 8.32103L61.5168 9.15575L61.9994 9.57311Z" fill="#171517"/>
<path d="M27.7437 31.2241C27.5055 31.5876 27.292 31.9667 27.1045 32.3588L18.7821 27.5591L18.469 28.1461L4.01562 19.7988L4.35478 19.225L5.32008 17.5425L19.7735 25.8897C19.6691 26.0723 19.5517 26.2419 19.4343 26.4244L27.7437 31.2241Z" fill="#171517"/>
<path d="M26.2196 34.7579C26.115 35.1875 26.0366 35.623 25.9848 36.0621L16.5405 34.3927C16.5405 34.6014 16.5405 34.8231 16.4492 35.0318L0 32.1363L0.45656 29.5278L16.9579 32.4624C16.9579 32.658 16.8666 32.8537 16.8405 33.0493L26.2196 34.7579Z" fill="#171517"/>
<path d="M16.8275 41.814C16.8275 41.9444 16.8275 42.0748 16.9058 42.2053L0.45656 45.1007L0 42.4922L16.4492 39.5968C16.4492 39.8054 16.4492 40.0272 16.5405 40.2359L25.9978 38.5664C26.0389 39.0061 26.113 39.4421 26.2196 39.8707L16.7753 41.5401C16.769 41.5921 16.769 41.6446 16.7753 41.6966C16.7779 41.7408 16.7965 41.7825 16.8275 41.814Z" fill="#171517"/>
<path d="M19.4343 48.257C19.5517 48.4396 19.6691 48.6222 19.7735 48.8048L5.32008 57.1259L4.01562 54.8695L18.469 46.5223L18.7821 47.1092L27.0915 42.3096C27.2854 42.6966 27.5032 43.0712 27.7437 43.4312L19.4343 48.257Z" fill="#171517"/>
<path d="M69.9806 19.7985L55.5272 28.1327C55.4402 27.9391 55.3399 27.7517 55.2272 27.5718L46.9569 32.3585C46.763 31.9714 46.5452 31.5968 46.3047 31.2368L54.588 26.4502C54.5492 26.3778 54.5057 26.3081 54.4575 26.2415C54.3923 26.1241 54.3141 26.0198 54.2358 25.9024L68.6892 17.5552L69.0153 18.129L69.6675 19.2507L69.9806 19.7985Z" fill="#171517"/>
<path d="M74.0033 32.1365L57.5672 35.0319L57.4889 34.3928L48.0707 36.0492C48.0207 35.6099 47.9422 35.1742 47.8359 34.745L57.2672 33.0755C57.2672 33.2842 57.3585 33.4929 57.3976 33.7016C57.3976 33.4929 57.3976 33.2842 57.2932 33.0755L57.1367 32.4365L73.5729 29.541L73.6903 30.1801L73.912 31.4844L74.0033 32.1365Z" fill="#171517"/>
<path d="M73.9982 42.5318L73.8808 43.1708L73.659 44.4751L73.5416 45.1142L57.1055 42.2187C57.1055 42.0101 57.2098 41.8014 57.262 41.5797C57.3142 41.3579 57.3403 41.1623 57.3664 40.9536C57.3664 41.1623 57.2881 41.371 57.2359 41.5797L47.8047 39.9102C47.9119 39.4818 47.986 39.0457 48.0264 38.606L57.4577 40.2754L57.5359 39.6363L73.9982 42.5318Z" fill="#171517"/>
<path d="M69.9832 54.8699L69.6702 55.4177L69.0049 56.5524L68.6788 57.1262L54.2384 48.779C54.2997 48.6907 54.3562 48.5993 54.408 48.5051C54.408 48.4138 54.5385 48.3225 54.5906 48.2312L46.2812 43.4316C46.5188 43.0653 46.7366 42.6865 46.9335 42.2969L55.2168 47.0835C55.3211 46.9009 55.4124 46.7183 55.5038 46.5227L69.9832 54.8699Z" fill="#171517"/>
<path d="M61.9996 65.095L61.5169 65.5123L60.5255 66.3471L60.0037 66.7775L49.2681 53.9827L49.8029 53.5784L49.9855 53.4349L49.8029 53.5654L43.6328 46.2224C43.9868 45.9734 44.3185 45.6941 44.6242 45.3877L50.7943 52.7306L50.4421 53.0567L50.8073 52.7437L51.2769 52.3133L61.9996 65.095Z" fill="#171517"/>
<path d="M50.9936 71.9685L50.4066 72.1772L49.1804 72.6206L48.5543 72.8424L42.8408 57.1913H42.9451L43.4539 57.0348L44.0539 56.8131L43.4539 57.0218L40.1797 48.0224C40.5938 47.8976 40.9991 47.745 41.3928 47.5659L44.667 56.5653L44.067 56.8131L44.6801 56.5783L45.254 56.3305L50.9936 71.9685Z" fill="#171517"/>
<path d="M38.3199 57.9738V74.6682H35.7109V57.9738H36.3762V48.4136H37.6807V57.9868H38.3199V57.9738Z" fill="#171517"/>
<path d="M31.038 57.1396H31.1685L25.455 72.7906L24.868 72.5689L23.6418 72.1254L23.0156 71.9037L28.7291 56.2527L29.2901 56.4744L29.8771 56.6961L29.2901 56.4613L32.6164 47.5142C33.0101 47.6933 33.4154 47.8458 33.8296 47.9706L30.5554 56.97L31.038 57.1396Z" fill="#171517"/>
</g>
<defs>
<clipPath id="clip0_577_16497">
<rect width="74.0018" height="74.6685" fill="white"/>
</clipPath>
</defs>
</svg>
