<svg width="56" height="57" viewBox="0 0 56 57" fill="none" xmlns="http://www.w3.org/2000/svg">
<g clip-path="url(#clip0_680_16447)">
<path d="M33.1283 13.4626L32.9011 13.3935L32.6641 13.3145L32.9011 13.3836L33.1283 13.4626Z" fill="#171517"/>
<path d="M18.3197 40.5448L18.7047 40.8508L10.5806 50.533L9.07031 49.2598L17.1944 39.5776L17.5695 39.923L22.2387 34.3564C22.475 34.5827 22.7256 34.7937 22.9889 34.9881L18.3197 40.5448Z" fill="#171517"/>
<path d="M37.818 16.068C37.7761 16.0296 37.7296 15.9964 37.6797 15.9692L37.818 16.068Z" fill="#171517"/>
<path d="M41.2998 20.0063L41.2109 19.8384C41.2444 19.8922 41.2741 19.9483 41.2998 20.0063Z" fill="#171517"/>
<path d="M42.0162 21.29C41.9471 21.1419 41.8681 21.0036 41.7891 20.8555C41.8748 20.9948 41.9508 21.14 42.0162 21.29Z" fill="#171517"/>
<path d="M43.4397 25.5239C43.4397 25.3659 43.3805 25.2079 43.341 25.0498C43.3015 24.8918 43.2817 24.7239 43.2422 24.5659L43.3607 25.0498C43.3706 25.2079 43.4397 25.3659 43.4397 25.5239Z" fill="#171517"/>
<path d="M43.5613 26.5102C43.5613 26.3522 43.5613 26.1942 43.4922 26.0361L43.5613 26.5102Z" fill="#171517"/>
<path d="M43.4397 30.981C43.4397 31.139 43.4397 31.297 43.3607 31.455C43.2817 31.613 43.2916 31.7809 43.2422 31.9389C43.2422 31.7809 43.3212 31.6229 43.3508 31.455C43.3805 31.2871 43.4397 31.139 43.4397 30.981Z" fill="#171517"/>
<path d="M43.5671 29.9946L43.5078 30.4786C43.5078 30.3205 43.5572 30.1526 43.577 29.9946H43.5671Z" fill="#171517"/>
<path d="M41.1753 36.7056C41.1361 36.7769 41.0932 36.8461 41.0469 36.913L41.1753 36.7056Z" fill="#171517"/>
<path d="M41.3102 36.5182C41.3102 36.5873 41.2213 36.6564 41.1719 36.7256L41.2904 36.5083L41.3102 36.5182Z" fill="#171517"/>
<path d="M42.022 35.2153C41.9529 35.3635 41.8837 35.5017 41.8047 35.64C41.888 35.5027 41.9639 35.3609 42.0319 35.2153H42.022Z" fill="#171517"/>
<path d="M38.7962 39.588L38.4406 39.9139L38.1641 40.1509L38.4308 39.904C38.5493 39.8053 38.6678 39.6868 38.7864 39.5781L38.7962 39.588Z" fill="#171517"/>
<path d="M33.3552 42.9536L32.9009 43.1215L32.5156 43.24L32.9009 43.1116L33.3552 42.9536Z" fill="#171517"/>
<path d="M34.2661 42.5879L33.8314 42.7755L33.3672 42.9533L33.8216 42.7657C33.973 42.715 34.1214 42.6556 34.2661 42.5879Z" fill="#171517"/>
<path d="M28.5116 43.8813H28.0078C28.1756 43.8912 28.3438 43.8912 28.5116 43.8813Z" fill="#171517"/>
<path d="M33.3606 13.5417C33.2125 13.4923 33.0643 13.4331 32.9062 13.3936L33.3606 13.5417Z" fill="#171517"/>
<path d="M37.818 16.068C37.7761 16.0296 37.7296 15.9964 37.6797 15.9692L37.818 16.068Z" fill="#171517"/>
<path d="M43.3323 25.0493C43.3323 25.2073 43.3915 25.3654 43.4113 25.5234C43.4113 25.3654 43.352 25.2073 43.3125 25.0493H43.3323Z" fill="#171517"/>
<path d="M55.9299 23.8361H55.9101L55.7422 22.8584H55.7521L55.9299 23.8361Z" fill="#171517"/>
<path d="M43.4306 30.981C43.4306 31.139 43.4306 31.297 43.3516 31.455C43.3516 31.297 43.4306 31.139 43.4306 30.981Z" fill="#171517"/>
<path d="M38.5031 39.9137L38.2266 40.1507L38.4933 39.9038L38.5031 39.9137Z" fill="#171517"/>
<path d="M32.9062 43.1116L33.3606 42.9536L32.9062 43.1215V43.1116Z" fill="#171517"/>
<path d="M33.8314 42.776L33.3672 42.9538L33.8216 42.7661L33.8314 42.776Z" fill="#171517"/>
<path d="M22.9889 21.5161C22.7256 21.7105 22.475 21.9215 22.2387 22.1478L17.5695 16.5812L17.3622 16.7786C17.303 16.7786 17.2536 16.8773 17.1944 16.9266L9.07031 7.24439L10.5806 5.97119L18.7442 15.6534L18.3592 15.9594L22.9889 21.5161Z" fill="#171517"/>
<path d="M25.6151 20.203C25.3017 20.2975 24.995 20.4129 24.697 20.5485L22.2095 13.7186C22.1117 13.7521 22.0161 13.7916 21.9232 13.837L21.7455 13.9061L17.4219 2.06236L19.2678 1.38135L23.5915 13.2251L23.1374 13.3731L25.6151 20.203Z" fill="#171517"/>
<path d="M29.0055 0V12.6333H28.5218V19.8876H27.5347V12.6136H27.0312V0H29.0055Z" fill="#171517"/>
<path d="M38.5855 2.04287L34.2618 13.8866C34.1236 13.8274 33.9756 13.7583 33.8275 13.709L31.3399 20.529C31.042 20.3934 30.7353 20.278 30.4219 20.1835L32.8996 13.3734L33.1266 13.4425L32.8996 13.3635L32.6627 13.2944H32.5541H32.4356L36.7593 1.45068L37.2331 1.62834L38.161 1.96391L38.5855 2.04287Z" fill="#171517"/>
<path d="M46.9177 7.24439L38.7936 16.9168L38.4975 16.5911L33.8283 22.1576C33.597 21.9258 33.346 21.7144 33.0781 21.526L37.7473 15.9693C37.7972 15.9965 37.8436 16.0296 37.8855 16.068L37.7473 15.9594L37.3425 15.6534L45.4074 5.97119L45.8023 6.29689L46.5525 6.92856L46.9177 7.24439Z" fill="#171517"/>
<path d="M20.995 23.6283C20.8147 23.9034 20.6531 24.1903 20.5113 24.487L14.2134 20.8549L13.9765 21.299L3.03906 14.9824L3.29572 14.5481L4.02619 13.2749L14.9636 19.5916C14.8846 19.7297 14.7958 19.858 14.707 19.9962L20.995 23.6283Z" fill="#171517"/>
<path d="M19.8414 26.3025C19.7622 26.6276 19.7029 26.9572 19.6637 27.2895L12.5168 26.0262C12.5168 26.1841 12.5168 26.3519 12.4477 26.5098L0 24.3187L0.345496 22.3447L12.8327 24.5654C12.8327 24.7135 12.7636 24.8615 12.7439 25.0096L19.8414 26.3025Z" fill="#171517"/>
<path d="M12.734 31.6426C12.734 31.7413 12.734 31.84 12.7932 31.9387L0.345496 34.1298L0 32.1559L12.4477 29.9648C12.4477 30.1227 12.4477 30.2905 12.5168 30.4484L19.6735 29.1851C19.7046 29.5178 19.7607 29.8477 19.8414 30.172L12.6945 31.4354C12.6898 31.4747 12.6898 31.5145 12.6945 31.5538C12.6965 31.5872 12.7105 31.6188 12.734 31.6426Z" fill="#171517"/>
<path d="M14.707 36.5182C14.7958 36.6564 14.8846 36.7946 14.9636 36.9327L4.02619 43.2296L3.03906 41.5222L13.9765 35.2055L14.2134 35.6497L20.5014 32.0176C20.6482 32.3105 20.813 32.594 20.995 32.8664L14.707 36.5182Z" fill="#171517"/>
<path d="M52.9555 14.9823L42.0181 21.2891C41.9522 21.1426 41.8764 21.0008 41.791 20.8647L35.5326 24.4869C35.3859 24.194 35.221 23.9105 35.0391 23.6381L41.3073 20.0159C41.278 19.9611 41.2451 19.9083 41.2086 19.8579C41.1593 19.7691 41.1001 19.6902 41.0408 19.6013L51.9782 13.2847L52.225 13.7189L52.7186 14.5677L52.9555 14.9823Z" fill="#171517"/>
<path d="M55.9972 24.3191L43.5593 26.5102L43.5001 26.0265L36.373 27.28C36.3351 26.9475 36.2757 26.6178 36.1953 26.293L43.3323 25.0297C43.3323 25.1876 43.4014 25.3455 43.431 25.5034C43.431 25.3455 43.431 25.1876 43.352 25.0297L43.2336 24.5461L55.6714 22.355L55.7603 22.8386L55.9281 23.8256L55.9972 24.3191Z" fill="#171517"/>
<path d="M55.9935 32.1856L55.9046 32.6693L55.7368 33.6562L55.648 34.1399L43.2101 31.9488C43.2101 31.7909 43.2891 31.6329 43.3286 31.4652C43.3681 31.2974 43.3878 31.1493 43.4076 30.9914C43.4076 31.1493 43.3483 31.3072 43.3088 31.4652L36.1719 30.2018C36.253 29.8776 36.3091 29.5476 36.3397 29.2148L43.4766 30.4782L43.5359 29.9946L55.9935 32.1856Z" fill="#171517"/>
<path d="M52.9596 41.5223L52.7227 41.9368L52.2193 42.7955L51.9725 43.2298L41.0449 36.9131C41.0913 36.8463 41.1341 36.7771 41.1733 36.7058C41.1733 36.6367 41.272 36.5677 41.3115 36.4986L35.0234 32.8665C35.2032 32.5893 35.368 32.3027 35.517 32.0078L41.7853 35.63C41.8643 35.4918 41.9334 35.3537 42.0025 35.2056L52.9596 41.5223Z" fill="#171517"/>
<path d="M46.9144 49.2599L46.5492 49.5758L45.799 50.2074L45.4041 50.5331L37.28 40.8509L37.6848 40.5449L37.823 40.4363L37.6848 40.535L33.0156 34.9783C33.2835 34.7899 33.5345 34.5786 33.7658 34.3467L38.435 39.9034L38.1685 40.1501L38.4449 39.9132L38.8002 39.5875L46.9144 49.2599Z" fill="#171517"/>
<path d="M38.5896 54.4615L38.1454 54.6194L37.2175 54.955L36.7436 55.1228L32.42 43.279H32.499L32.884 43.1606L33.338 42.9928L32.884 43.1507L30.4062 36.3406C30.7196 36.2461 31.0263 36.1307 31.3243 35.9951L33.802 42.8053L33.3479 42.9928L33.8119 42.8151L34.2462 42.6276L38.5896 54.4615Z" fill="#171517"/>
<path d="M29.0055 43.8713V56.5046H27.0312V43.8713H27.5347V36.6367H28.5218V43.8811H29.0055V43.8713Z" fill="#171517"/>
<path d="M23.4927 43.24H23.5915L19.2678 55.0837L18.8236 54.9159L17.8957 54.5803L17.4219 54.4125L21.7455 42.5688L22.17 42.7366L22.6142 42.9044L22.17 42.7267L24.6872 35.9561C24.9851 36.0916 25.2918 36.207 25.6052 36.3015L23.1275 43.1116L23.4927 43.24Z" fill="#171517"/>
</g>
<defs>
<clipPath id="clip0_680_16447">
<rect width="56" height="56.5045" fill="white"/>
</clipPath>
</defs>
</svg>
