<svg width="244" height="247" viewBox="0 0 244 247" fill="none" xmlns="http://www.w3.org/2000/svg">
<g clip-path="url(#clip0_894_2270)">
<path d="M144.344 58.8468L143.354 58.5446L142.321 58.1992L143.354 58.5014L144.344 58.8468Z" fill="#1A1B24"/>
<path d="M79.8421 177.234L81.5195 178.571L46.1217 220.896L39.541 215.33L74.9389 173.006L76.5733 174.516L96.9174 150.183C97.9473 151.172 99.0391 152.094 100.186 152.944L79.8421 177.234Z" fill="#1A1B24"/>
<path d="M164.794 70.2413C164.611 70.0734 164.409 69.9284 164.191 69.8096L164.794 70.2413Z" fill="#1A1B24"/>
<path d="M179.957 87.4546L179.569 86.7207C179.715 86.9561 179.844 87.2014 179.957 87.4546Z" fill="#1A1B24"/>
<path d="M183.084 93.0622C182.782 92.4146 182.438 91.8102 182.094 91.1626C182.468 91.7718 182.798 92.4066 183.084 93.0622Z" fill="#1A1B24"/>
<path d="M189.266 111.573C189.266 110.883 189.008 110.192 188.836 109.501C188.664 108.81 188.577 108.076 188.405 107.386L188.922 109.501C188.965 110.192 189.266 110.883 189.266 111.573Z" fill="#1A1B24"/>
<path d="M189.814 115.887C189.814 115.196 189.814 114.505 189.513 113.814L189.814 115.887Z" fill="#1A1B24"/>
<path d="M189.266 135.429C189.266 136.12 189.266 136.811 188.922 137.501C188.577 138.192 188.62 138.926 188.405 139.617C188.405 138.926 188.75 138.235 188.879 137.501C189.008 136.768 189.266 136.12 189.266 135.429Z" fill="#1A1B24"/>
<path d="M189.823 131.116L189.564 133.232C189.564 132.541 189.78 131.807 189.866 131.116H189.823Z" fill="#1A1B24"/>
<path d="M179.407 160.452C179.236 160.763 179.05 161.066 178.848 161.358L179.407 160.452Z" fill="#1A1B24"/>
<path d="M179.991 159.633C179.991 159.935 179.604 160.237 179.389 160.539L179.905 159.589L179.991 159.633Z" fill="#1A1B24"/>
<path d="M183.092 153.939C182.791 154.587 182.49 155.191 182.146 155.796C182.509 155.195 182.839 154.576 183.135 153.939H183.092Z" fill="#1A1B24"/>
<path d="M169.058 173.052L167.509 174.477L166.304 175.513L167.466 174.433C167.982 174.002 168.499 173.484 169.015 173.009L169.058 173.052Z" fill="#1A1B24"/>
<path d="M145.335 187.765L143.355 188.499L141.677 189.017L143.355 188.456L145.335 187.765Z" fill="#1A1B24"/>
<path d="M149.277 186.166L147.383 186.986L145.36 187.763L147.34 186.943C148 186.722 148.647 186.462 149.277 186.166Z" fill="#1A1B24"/>
<path d="M124.217 191.819H122.022C122.753 191.862 123.486 191.862 124.217 191.819Z" fill="#1A1B24"/>
<path d="M145.357 59.1959C144.711 58.9801 144.066 58.721 143.377 58.5483L145.357 59.1959Z" fill="#1A1B24"/>
<path d="M164.794 70.2413C164.611 70.0734 164.409 69.9284 164.191 69.8096L164.794 70.2413Z" fill="#1A1B24"/>
<path d="M188.8 109.499C188.8 110.189 189.058 110.88 189.144 111.571C189.144 110.88 188.886 110.189 188.714 109.499H188.8Z" fill="#1A1B24"/>
<path d="M243.678 104.197H243.592L242.86 99.9233H242.903L243.678 104.197Z" fill="#1A1B24"/>
<path d="M189.239 135.429C189.239 136.12 189.239 136.811 188.895 137.501C188.895 136.811 189.239 136.12 189.239 135.429Z" fill="#1A1B24"/>
<path d="M167.74 174.473L166.535 175.509L167.697 174.43L167.74 174.473Z" fill="#1A1B24"/>
<path d="M143.377 188.456L145.357 187.765L143.377 188.499V188.456Z" fill="#1A1B24"/>
<path d="M147.383 186.988L145.36 187.765L147.34 186.945L147.383 186.988Z" fill="#1A1B24"/>
<path d="M100.186 94.054C99.0391 94.9037 97.9473 95.826 96.9174 96.8152L76.5733 72.482L75.6701 73.3448C75.412 73.3448 75.1969 73.7763 74.9389 73.992L39.541 31.6676L46.1217 26.1021L81.6916 68.4264L80.0141 69.7639L100.186 94.054Z" fill="#1A1B24"/>
<path d="M111.587 88.3168C110.221 88.7298 108.885 89.2343 107.587 89.8269L96.7479 59.9711C96.3218 60.1176 95.9052 60.2905 95.5006 60.4889L94.7264 60.7909L75.8877 9.01796L83.9307 6.04102L102.769 57.8139L100.791 58.4611L111.587 88.3168Z" fill="#1A1B24"/>
<path d="M126.349 0V55.2245H124.242V86.9354H119.941V55.1382H117.747V0H126.349Z" fill="#1A1B24"/>
<path d="M168.128 8.92995L149.29 60.7029C148.688 60.444 148.042 60.142 147.397 59.9263L136.559 89.7389C135.26 89.1463 133.924 88.6418 132.559 88.2288L143.354 58.4594L144.344 58.7614L143.354 58.4162L142.322 58.1142H141.849H141.333L160.172 6.34131L162.236 7.1179L166.279 8.5848L168.128 8.92995Z" fill="#1A1B24"/>
<path d="M204.425 31.6676L169.027 73.9489L167.737 72.5251L147.393 96.8584C146.385 95.8448 145.291 94.9209 144.124 94.0972L164.468 69.807C164.686 69.9258 164.888 70.0707 165.07 70.2385L164.468 69.7639L162.705 68.4264L197.844 26.1021L199.565 27.5258L202.834 30.287L204.425 31.6676Z" fill="#1A1B24"/>
<path d="M91.4768 103.289C90.6914 104.492 89.9873 105.746 89.3693 107.043L61.9284 91.1659L60.8961 93.1074L13.2402 65.4952L14.3585 63.5968L17.5413 58.0312L65.1972 85.6435C64.8531 86.2475 64.466 86.8084 64.0789 87.4124L91.4768 103.289Z" fill="#1A1B24"/>
<path d="M86.4516 114.979C86.1067 116.4 85.8481 117.841 85.6774 119.293L54.5376 113.771C54.5376 114.461 54.5376 115.195 54.2366 115.885L0 106.307L1.50538 97.6782L55.914 107.386C55.914 108.033 55.6129 108.68 55.5269 109.327L86.4516 114.979Z" fill="#1A1B24"/>
<path d="M55.4839 138.319C55.4839 138.751 55.4839 139.182 55.7419 139.613L1.50538 149.191L0 140.563L54.2366 130.985C54.2366 131.675 54.2366 132.408 54.5376 133.099L85.7204 127.576C85.8558 129.031 86.1002 130.473 86.4516 131.891L55.3118 137.413C55.2911 137.585 55.2911 137.759 55.3118 137.931C55.3204 138.077 55.3815 138.215 55.4839 138.319Z" fill="#1A1B24"/>
<path d="M64.0789 159.632C64.466 160.236 64.8531 160.84 65.1972 161.444L17.5413 188.97L13.2402 181.506L60.8961 153.894L61.9284 155.835L89.3263 139.958C89.9657 141.238 90.6839 142.478 91.4768 143.668L64.0789 159.632Z" fill="#1A1B24"/>
<path d="M230.741 65.4911L183.085 93.0602C182.798 92.4198 182.468 91.7999 182.096 91.205L154.827 107.039C154.188 105.759 153.47 104.519 152.677 103.328L179.989 87.4946C179.861 87.255 179.717 87.0244 179.558 86.8043C179.343 86.416 179.085 86.0708 178.827 85.6825L226.483 58.0703L227.558 59.9687L229.709 63.679L230.741 65.4911Z" fill="#1A1B24"/>
<path d="M244.004 106.307L189.811 115.885L189.553 113.771L158.499 119.25C158.334 117.797 158.075 116.356 157.725 114.936L188.821 109.413C188.821 110.104 189.122 110.794 189.251 111.484C189.251 110.794 189.251 110.104 188.907 109.413L188.391 107.299L242.585 97.7212L242.972 99.8353L243.703 104.15L244.004 106.307Z" fill="#1A1B24"/>
<path d="M243.988 140.691L243.601 142.806L242.869 147.12L242.482 149.234L188.289 139.656C188.289 138.966 188.633 138.275 188.805 137.542C188.977 136.808 189.063 136.161 189.149 135.471C189.149 136.161 188.891 136.852 188.719 137.542L157.622 132.019C157.976 130.602 158.22 129.16 158.353 127.705L189.45 133.228L189.708 131.113L243.988 140.691Z" fill="#1A1B24"/>
<path d="M230.75 181.507L229.718 183.319L227.524 187.073L226.449 188.971L178.836 161.359C179.038 161.066 179.225 160.764 179.395 160.453C179.395 160.151 179.825 159.849 179.997 159.547L152.6 143.67C153.383 142.458 154.101 141.205 154.75 139.916L182.062 155.75C182.406 155.146 182.707 154.542 183.008 153.895L230.75 181.507Z" fill="#1A1B24"/>
<path d="M204.426 215.331L202.835 216.712L199.566 219.473L197.846 220.897L162.448 178.573L164.211 177.235L164.813 176.761L164.211 177.192L143.867 152.902C145.034 152.078 146.128 151.154 147.136 150.141L167.48 174.431L166.319 175.509L167.523 174.474L169.071 173.05L204.426 215.331Z" fill="#1A1B24"/>
<path d="M168.137 238.07L166.202 238.761L162.159 240.227L160.094 240.961L141.256 189.188H141.6L143.277 188.67L145.256 187.937L143.277 188.627L132.481 158.858C133.847 158.445 135.183 157.94 136.481 157.348L147.277 187.117L145.299 187.937L147.32 187.16L149.213 186.34L168.137 238.07Z" fill="#1A1B24"/>
<path d="M126.349 191.776V247H117.747V191.776H119.941V160.151H124.242V191.819H126.349V191.776Z" fill="#1A1B24"/>
<path d="M102.339 189.013H102.769L83.9307 240.786L81.9952 240.053L77.9522 238.586L75.8877 237.852L94.7264 186.079L96.5759 186.813L98.5114 187.546L96.5759 186.77L107.544 157.173C108.842 157.765 110.178 158.27 111.544 158.683L100.748 188.452L102.339 189.013Z" fill="#1A1B24"/>
</g>
<defs>
<clipPath id="clip0_894_2270">
<rect width="244" height="247" fill="white"/>
</clipPath>
</defs>
</svg>
